<svg width="294" height="30" viewBox="0 0 294 30" fill="none" xmlns="http://www.w3.org/2000/svg" preserveAspectRatio="none">
    <rect x="0.5" y="0.5" width="293" height="29" fill="#203DAF"/>
    <rect x="0.5" y="0.5" width="293" height="29" stroke="#00AEEF"/>
    <path d="M12 2.1875C12 2.0625 12 1.9375 12 1.8125C11.65 1.79167 11.3 1.77188 10.95 1.75313C7.96667 1.5933 4.98333 1.50917 2 1.50071L1.50213 1.4993L1.50071 2C1.50024 2.16667 1.5 2.33333 1.5 2.5C1.5 5.65 1.58438 8.8 1.75313 11.95C1.77188 12.3 1.79167 12.65 1.8125 13C1.9375 13 2.0625 13 2.1875 13C2.20833 12.65 2.22813 12.3 2.24688 11.95C2.41563 8.8 2.5 5.65 2.5 2.5C2.5 2.33333 2.49976 2.16667 2.49929 2L2 2.49929C4.98333 2.49084 7.96667 2.4067 10.95 2.24688C11.3 2.22813 11.65 2.20833 12 2.1875Z" fill="#00AEEF"/>
    <path d="M11 4.1875C11 4.0625 11 3.9375 11 3.8125C10.7667 3.79167 10.5333 3.77188 10.3 3.75313C8.2 3.58438 6.1 3.5 4 3.5L3.5 3.5L3.5 4C3.5 6.1 3.58438 8.2 3.75313 10.3C3.77188 10.5333 3.79167 10.7667 3.8125 11C3.9375 11 4.0625 11 4.1875 11C4.20833 10.7667 4.22813 10.5333 4.24688 10.3C4.41563 8.2 4.5 6.1 4.5 4L4 4.5C6.1 4.5 8.2 4.41563 10.3 4.24688C10.5333 4.22813 10.7667 4.20833 11 4.1875Z" fill="#00AEEF" fill-opacity="0.4"/>
    <path d="M282 2.1875C282 2.0625 282 1.9375 282 1.8125C282.35 1.79167 282.7 1.77188 283.05 1.75313C286.033 1.5933 289.017 1.50917 292 1.50071L292.498 1.4993L292.499 2C292.5 2.16667 292.5 2.33333 292.5 2.5C292.5 5.65 292.416 8.8 292.247 11.95C292.228 12.3 292.208 12.65 292.187 13C292.062 13 291.937 13 291.812 13C291.792 12.65 291.772 12.3 291.753 11.95C291.584 8.8 291.5 5.65 291.5 2.5C291.5 2.33333 291.5 2.16667 291.501 2L292 2.49929C289.017 2.49084 286.033 2.4067 283.05 2.24688C282.7 2.22813 282.35 2.20833 282 2.1875Z" fill="#00AEEF"/>
    <path d="M283 4.1875C283 4.0625 283 3.9375 283 3.8125C283.233 3.79167 283.467 3.77188 283.7 3.75313C285.8 3.58438 287.9 3.5 290 3.5L290.5 3.5L290.5 4C290.5 6.1 290.416 8.2 290.247 10.3C290.228 10.5333 290.208 10.7667 290.187 11C290.062 11 289.937 11 289.812 11C289.792 10.7667 289.772 10.5333 289.753 10.3C289.584 8.2 289.5 6.1 289.5 4L290 4.5C287.9 4.5 285.8 4.41563 283.7 4.24688C283.467 4.22813 283.233 4.20833 283 4.1875Z" fill="#00AEEF" fill-opacity="0.4"/>
    <path d="M12 27.8125C12 27.9375 12 28.0625 12 28.1875C11.65 28.2083 11.3 28.2281 10.95 28.2469C7.96667 28.4067 4.98333 28.4908 2 28.4993L1.50213 28.5007L1.50071 28C1.50024 27.8333 1.5 27.6667 1.5 27.5C1.5 24.35 1.58438 21.2 1.75313 18.05C1.77188 17.7 1.79167 17.35 1.8125 17C1.9375 17 2.0625 17 2.1875 17C2.20833 17.35 2.22813 17.7 2.24688 18.05C2.41563 21.2 2.5 24.35 2.5 27.5C2.5 27.6667 2.49976 27.8333 2.49929 28L2 27.5007C4.98333 27.5092 7.96667 27.5933 10.95 27.7531C11.3 27.7719 11.65 27.7917 12 27.8125Z" fill="#00AEEF"/>
    <path d="M11 25.8125C11 25.9375 11 26.0625 11 26.1875C10.7667 26.2083 10.5333 26.2281 10.3 26.2469C8.2 26.4156 6.1 26.5 4 26.5L3.5 26.5L3.5 26C3.5 23.9 3.58438 21.8 3.75313 19.7C3.77188 19.4667 3.79167 19.2333 3.8125 19C3.9375 19 4.0625 19 4.1875 19C4.20833 19.2333 4.22813 19.4667 4.24688 19.7C4.41563 21.8 4.5 23.9 4.5 26L4 25.5C6.1 25.5 8.2 25.5844 10.3 25.7531C10.5333 25.7719 10.7667 25.7917 11 25.8125Z" fill="#00AEEF" fill-opacity="0.4"/>
    <path d="M282 27.8125C282 27.9375 282 28.0625 282 28.1875C282.35 28.2083 282.7 28.2281 283.05 28.2469C286.033 28.4067 289.017 28.4908 292 28.4993L292.498 28.5007L292.499 28C292.5 27.8333 292.5 27.6667 292.5 27.5C292.5 24.35 292.416 21.2 292.247 18.05C292.228 17.7 292.208 17.35 292.187 17C292.062 17 291.937 17 291.812 17C291.792 17.35 291.772 17.7 291.753 18.05C291.584 21.2 291.5 24.35 291.5 27.5C291.5 27.6667 291.5 27.8333 291.501 28L292 27.5007C289.017 27.5092 286.033 27.5933 283.05 27.7531C282.7 27.7719 282.35 27.7917 282 27.8125Z" fill="#00AEEF"/>
    <path d="M283 25.8125C283 25.9375 283 26.0625 283 26.1875C283.233 26.2083 283.467 26.2281 283.7 26.2469C285.8 26.4156 287.9 26.5 290 26.5L290.5 26.5L290.5 26C290.5 23.9 290.416 21.8 290.247 19.7C290.228 19.4667 290.208 19.2333 290.187 19C290.062 19 289.937 19 289.812 19C289.792 19.2333 289.772 19.4667 289.753 19.7C289.584 21.8 289.5 23.9 289.5 26L290 25.5C287.9 25.5 285.8 25.5844 283.7 25.7531C283.467 25.7719 283.233 25.7917 283 25.8125Z" fill="#00AEEF" fill-opacity="0.4"/>
</svg>
