<svg width="11" height="11" viewBox="0 0 11 11" fill="none" xmlns="http://www.w3.org/2000/svg">
<mask id="path-1-inside-1_266_770" fill="white">
<path d="M7.8208 8.43644C8.15465 8.8764 8.79152 8.96778 9.15637 8.55317C9.62089 8.02531 9.9714 7.40247 10.1808 6.7234C10.4891 5.72381 10.476 4.65271 10.1436 3.66091C9.81114 2.6691 9.176 1.80654 8.32759 1.19466C7.47918 0.582778 6.46023 0.252391 5.4142 0.250013C4.36816 0.247635 3.34772 0.573386 2.49654 1.1814C1.64536 1.78942 1.0063 2.64909 0.669348 3.63937C0.332391 4.62965 0.314503 5.70068 0.618201 6.70166C0.82452 7.38168 1.1722 8.00611 1.63431 8.53607C1.99728 8.95234 2.63455 8.86385 2.9704 8.42542L3.58615 7.62158C3.922 7.18315 3.80541 6.55504 3.58326 6.04941C3.55156 5.97725 3.52406 5.903 3.50101 5.82701C3.38029 5.42914 3.3874 5.00342 3.52134 4.6098C3.65527 4.21617 3.90929 3.87447 4.24762 3.63279C4.58595 3.39111 4.99156 3.26163 5.40735 3.26258C5.82313 3.26352 6.22815 3.39485 6.56538 3.63806C6.90261 3.88127 7.15507 4.22413 7.28722 4.61836C7.41936 5.01259 7.42454 5.43833 7.30201 5.83565C7.27861 5.91154 7.25078 5.98566 7.21875 6.05767C6.99431 6.56229 6.87486 7.18986 7.20871 7.62982L7.8208 8.43644Z"/>
</mask>
<path d="M7.8208 8.43644C8.15465 8.8764 8.79152 8.96778 9.15637 8.55317C9.62089 8.02531 9.9714 7.40247 10.1808 6.7234C10.4891 5.72381 10.476 4.65271 10.1436 3.66091C9.81114 2.6691 9.176 1.80654 8.32759 1.19466C7.47918 0.582778 6.46023 0.252391 5.4142 0.250013C4.36816 0.247635 3.34772 0.573386 2.49654 1.1814C1.64536 1.78942 1.0063 2.64909 0.669348 3.63937C0.332391 4.62965 0.314503 5.70068 0.618201 6.70166C0.82452 7.38168 1.1722 8.00611 1.63431 8.53607C1.99728 8.95234 2.63455 8.86385 2.9704 8.42542L3.58615 7.62158C3.922 7.18315 3.80541 6.55504 3.58326 6.04941C3.55156 5.97725 3.52406 5.903 3.50101 5.82701C3.38029 5.42914 3.3874 5.00342 3.52134 4.6098C3.65527 4.21617 3.90929 3.87447 4.24762 3.63279C4.58595 3.39111 4.99156 3.26163 5.40735 3.26258C5.82313 3.26352 6.22815 3.39485 6.56538 3.63806C6.90261 3.88127 7.15507 4.22413 7.28722 4.61836C7.41936 5.01259 7.42454 5.43833 7.30201 5.83565C7.27861 5.91154 7.25078 5.98566 7.21875 6.05767C6.99431 6.56229 6.87486 7.18986 7.20871 7.62982L7.8208 8.43644Z" stroke="white" stroke-width="2" mask="url(#path-1-inside-1_266_770)"/>
<mask id="path-2-inside-2_266_770" fill="white">
<path d="M4.98045 5.69337C4.87987 5.56083 4.68592 5.53326 4.58919 5.66863C4.52717 5.75544 4.47906 5.85213 4.44724 5.95532C4.38559 6.15524 4.38819 6.36946 4.45468 6.56782C4.52117 6.76618 4.6482 6.93869 4.81788 7.06107C4.98756 7.18344 5.19135 7.24952 5.40056 7.25C5.60977 7.25047 5.81385 7.18532 5.98409 7.06372C6.15433 6.94212 6.28214 6.77018 6.34953 6.57213C6.41692 6.37407 6.4205 6.15986 6.35976 5.95967C6.32841 5.85634 6.28074 5.75943 6.21911 5.67234C6.123 5.53653 5.92892 5.56322 5.82774 5.6953L5.79502 5.73801C5.71192 5.84651 5.74352 6.00382 5.7832 6.1346C5.80734 6.21417 5.80592 6.29932 5.77913 6.37804C5.75234 6.45677 5.70154 6.52511 5.63387 6.57344C5.56621 6.62178 5.48509 6.64767 5.40193 6.64748C5.31877 6.6473 5.23777 6.62103 5.17032 6.57239C5.10288 6.52374 5.05238 6.45517 5.02596 6.37633C4.99953 6.29748 4.99849 6.21233 5.023 6.13287C5.06327 6.00227 5.09558 5.8451 5.01297 5.73624L4.98045 5.69337Z"/>
</mask>
<path d="M4.98045 5.69337C4.87987 5.56083 4.68592 5.53326 4.58919 5.66863C4.52717 5.75544 4.47906 5.85213 4.44724 5.95532C4.38559 6.15524 4.38819 6.36946 4.45468 6.56782C4.52117 6.76618 4.6482 6.93869 4.81788 7.06107C4.98756 7.18344 5.19135 7.24952 5.40056 7.25C5.60977 7.25047 5.81385 7.18532 5.98409 7.06372C6.15433 6.94212 6.28214 6.77018 6.34953 6.57213C6.41692 6.37407 6.4205 6.15986 6.35976 5.95967C6.32841 5.85634 6.28074 5.75943 6.21911 5.67234C6.123 5.53653 5.92892 5.56322 5.82774 5.6953L5.79502 5.73801C5.71192 5.84651 5.74352 6.00382 5.7832 6.1346C5.80734 6.21417 5.80592 6.29932 5.77913 6.37804C5.75234 6.45677 5.70154 6.52511 5.63387 6.57344C5.56621 6.62178 5.48509 6.64767 5.40193 6.64748C5.31877 6.6473 5.23777 6.62103 5.17032 6.57239C5.10288 6.52374 5.05238 6.45517 5.02596 6.37633C4.99953 6.29748 4.99849 6.21233 5.023 6.13287C5.06327 6.00227 5.09558 5.8451 5.01297 5.73624L4.98045 5.69337Z" stroke="white" stroke-width="2" mask="url(#path-2-inside-2_266_770)"/>
</svg>
