<svg width="11" height="11" viewBox="0 0 11 11" fill="none" xmlns="http://www.w3.org/2000/svg">
<path d="M3.39941 2.44708L3.39954 6.37533C3.39954 6.52507 3.41085 6.6916 3.39154 6.83977C3.32603 7.34274 2.55379 7.40625 2.42308 6.90161C2.39422 6.79012 2.40468 6.65092 2.40466 6.53557L2.40477 6.04694L2.4046 2.10862C2.40457 1.954 2.39929 1.78402 2.41381 1.63084C2.47775 1.16723 3.23542 1.10141 3.3805 1.57503C3.41249 1.67946 3.39987 1.8493 3.39979 1.96143L3.39941 2.44708Z" fill="white"/>
<path d="M7.80673 9.24658L2.56906 9.24671C2.36941 9.24671 2.14736 9.25802 1.9498 9.23871C1.27918 9.1732 1.1945 8.40096 1.86735 8.27025C2.016 8.24139 2.20161 8.25185 2.35541 8.25183L3.00692 8.25194L8.258 8.25176C8.46416 8.25174 8.6908 8.24645 8.89504 8.26098C9.51319 8.32492 9.60095 9.08259 8.96946 9.22767C8.83022 9.25966 8.60376 9.24704 8.45426 9.24695L7.80673 9.24658Z" fill="white"/>
<path d="M7.40283 6.75C7.40283 7.02614 7.17897 7.25 6.90283 7.25C6.62669 7.25 6.40283 7.02614 6.40283 6.75L6.40283 0.75C6.40283 0.473858 6.62669 0.25 6.90283 0.25C7.17897 0.25 7.40283 0.473857 7.40283 0.75L7.40283 6.75Z" fill="white"/>
<path d="M5.40283 6.75C5.40283 7.02614 5.17897 7.25 4.90283 7.25C4.62669 7.25 4.40283 7.02614 4.40283 6.75L4.40283 3.75C4.40283 3.47386 4.62669 3.25 4.90283 3.25C5.17897 3.25 5.40283 3.47386 5.40283 3.75L5.40283 6.75Z" fill="white"/>
</svg>
