<svg width="11" height="11" viewBox="0 0 11 11" fill="none" xmlns="http://www.w3.org/2000/svg">
<path d="M2.42195 6.10625C2.39207 6.02312 2.31977 5.89506 2.27942 5.80314C1.37176 3.77304 3.00153 1.28005 5.2951 1.25571C5.76604 1.22013 6.3669 1.35448 6.79087 1.55578C8.29255 2.25551 9.11112 3.90135 8.65604 5.48819C8.59396 5.70469 8.50144 5.9037 8.40349 6.10625L9.81942 6.10585C10.5789 6.11029 10.5834 7.15137 9.91137 7.23979C9.79247 7.25544 9.64858 7.24773 9.52669 7.24748L7.50328 7.24701C7.23654 7.24499 6.97797 7.28928 6.78295 7.06437C6.65658 6.9186 6.58707 6.44441 6.72079 6.34676C8.34252 5.1624 7.66805 2.5363 5.50105 2.38658C3.32039 2.32177 2.3686 5.03117 4.04393 6.31389C4.14758 6.39325 4.1513 6.45986 4.16116 6.58048C4.22274 7.33336 3.58821 7.24701 3.07694 7.24698L1.35857 7.24738C1.09291 7.24753 0.795244 7.27598 0.588279 7.08009C0.358525 6.86264 0.337217 6.52051 0.552614 6.28364C0.771047 6.04343 1.0975 6.11875 1.38823 6.10632C1.73101 6.09891 2.07899 6.11398 2.42195 6.10625Z" fill="white"/>
<path d="M7.80673 9.24658L2.56906 9.24671C2.36941 9.24671 2.14736 9.25802 1.9498 9.23871C1.27918 9.1732 1.1945 8.40096 1.86735 8.27025C2.016 8.24139 2.20161 8.25185 2.35541 8.25183L3.00692 8.25194L8.258 8.25176C8.46416 8.25174 8.6908 8.24645 8.89504 8.26098C9.51319 8.32492 9.60095 9.08259 8.96946 9.22767C8.83022 9.25966 8.60376 9.24704 8.45426 9.24695L7.80673 9.24658Z" fill="white"/>
</svg>
