<svg width="11" height="11" viewBox="0 0 11 11" fill="none" xmlns="http://www.w3.org/2000/svg">
<path d="M1.90283 9.25C1.62669 9.25 1.40283 9.02614 1.40283 8.75C1.40283 8.47386 1.62669 8.25 1.90283 8.25L8.90283 8.25C9.17897 8.25 9.40283 8.47386 9.40283 8.75C9.40283 9.02614 9.17897 9.25 8.90283 9.25L1.90283 9.25Z" fill="white"/>
<path d="M2.40283 6.75C2.40283 7.02614 2.17897 7.25 1.90283 7.25C1.62669 7.25 1.40283 7.02614 1.40283 6.75L1.40283 1.75C1.40283 1.47386 1.62669 1.25 1.90283 1.25C2.17897 1.25 2.40283 1.47386 2.40283 1.75L2.40283 6.75Z" fill="white"/>
<path d="M8.30413 6.5526C8.47332 6.77084 8.43356 7.08491 8.21531 7.2541C7.99707 7.42329 7.683 7.38353 7.51381 7.16529L3.34549 1.78857C3.1763 1.57033 3.21606 1.25626 3.4343 1.08707C3.65254 0.917875 3.96662 0.957636 4.13581 1.17588L8.30413 6.5526Z" fill="white"/>
</svg>
