<svg width="11" height="11" viewBox="0 0 11 11" fill="none" xmlns="http://www.w3.org/2000/svg">
<path d="M4.83346 5.81909L7.01286 3.63973M9.24173 2.31034L7.40233 8.28898C7.23728 8.82505 7.15498 9.09309 7.01241 9.18169C6.9517 9.21961 6.88281 9.2425 6.81147 9.24845C6.74013 9.25439 6.66841 9.24322 6.60226 9.21586C6.44755 9.15155 6.32162 8.90106 6.07067 8.39916L4.90586 6.06869C4.88205 6.0147 4.85297 5.96318 4.81907 5.91488C4.79567 5.8844 4.76847 5.85705 4.73811 5.83348C4.69126 5.80094 4.64141 5.77293 4.58925 5.74984L2.25379 4.58145C1.75234 4.3305 1.50139 4.20503 1.43708 4.05032C1.40965 3.98411 1.39844 3.9123 1.40438 3.84088C1.41033 3.76946 1.43326 3.70049 1.47126 3.63973C1.55986 3.49761 1.8279 3.41486 2.36398 3.24981L8.34317 1.41044C8.76457 1.28047 8.97504 1.21571 9.11761 1.26833C9.17885 1.29081 9.23446 1.32636 9.28059 1.37248C9.32672 1.41861 9.36226 1.47423 9.38475 1.53546C9.43692 1.67758 9.37216 1.88805 9.24263 2.30899L9.24173 2.31034Z" stroke="white" stroke-linecap="round" stroke-linejoin="round"/>
</svg>
