<svg width="320" height="30" viewBox="0 0 320 30" fill="none" xmlns="http://www.w3.org/2000/svg" preserveAspectRatio="none">
<mask id="path-1-inside-1_115_2840" fill="white">
<path d="M43.4336 28C43.1942 27.9996 43.0003 27.8009 43 27.5557L43 24.4278C42.9995 24.1827 42.8057 23.9838 42.5664 23.9834L17.0273 23.9834C16.9102 23.9833 16.7975 23.9348 16.7158 23.8487L0.123045 5.91604C0.0444317 5.83307 2.857e-05 5.7221 -1.95771e-06 5.60647L-2.27299e-06 2.00003C-2.26279e-06 2.11671 0.0451332 2.22932 0.124998 2.31253L15.1113 17.8672C15.1929 17.9521 15.3046 17.9999 15.4209 18L47.5791 18C47.8186 18.0003 48.0124 18.1991 48.0127 18.4444L48 21.5557C48.0003 21.8009 48.1942 21.9996 48.4336 22L271.566 22C271.806 21.9996 272 21.8009 272 21.5557L271.987 18.4443C271.988 18.1991 272.181 18.0003 272.421 18L304.579 18C304.695 17.9999 304.807 17.9521 304.889 17.8672L319.875 2.3125C319.955 2.22929 320 2.11668 320 2L320 5.60645C320 5.72207 319.956 5.83304 319.877 5.91602L303.284 23.8486C303.202 23.9347 303.09 23.9833 302.973 23.9834L277.434 23.9834C277.194 23.9838 277 24.1827 277 24.4277L277 27.5557C277 27.8009 276.806 27.9996 276.566 28L43.4336 28Z"/>
</mask>
<path d="M43.4336 28C43.1942 27.9996 43.0003 27.8009 43 27.5557L43 24.4278C42.9995 24.1827 42.8057 23.9838 42.5664 23.9834L17.0273 23.9834C16.9102 23.9833 16.7975 23.9348 16.7158 23.8487L0.123045 5.91604C0.0444317 5.83307 2.857e-05 5.7221 -1.95771e-06 5.60647L-2.27299e-06 2.00003C-2.26279e-06 2.11671 0.0451332 2.22932 0.124998 2.31253L15.1113 17.8672C15.1929 17.9521 15.3046 17.9999 15.4209 18L47.5791 18C47.8186 18.0003 48.0124 18.1991 48.0127 18.4444L48 21.5557C48.0003 21.8009 48.1942 21.9996 48.4336 22L271.566 22C271.806 21.9996 272 21.8009 272 21.5557L271.987 18.4443C271.988 18.1991 272.181 18.0003 272.421 18L304.579 18C304.695 17.9999 304.807 17.9521 304.889 17.8672L319.875 2.3125C319.955 2.22929 320 2.11668 320 2L320 5.60645C320 5.72207 319.956 5.83304 319.877 5.91602L303.284 23.8486C303.202 23.9347 303.09 23.9833 302.973 23.9834L277.434 23.9834C277.194 23.9838 277 24.1827 277 24.4277L277 27.5557C277 27.8009 276.806 27.9996 276.566 28L43.4336 28Z" fill="#283E95"/>
<path d="M43.4336 28L43.4319 29L43.4336 29L43.4336 28ZM43 27.5557L42 27.5557L42 27.5569L43 27.5557ZM43 24.4278L44 24.4278L44 24.4259L43 24.4278ZM42.5664 23.9834L42.5681 22.9834L42.5664 22.9834L42.5664 23.9834ZM17.0273 23.9834L17.0263 24.9834L17.0273 24.9834L17.0273 23.9834ZM16.7158 23.8487L15.9818 24.5279L15.9903 24.5369L16.7158 23.8487ZM0.123045 5.91604L0.857084 5.23684L0.848997 5.22829L0.123045 5.91604ZM-1.95771e-06 5.60647L-1 5.60647L-1 5.60684L-1.95771e-06 5.60647ZM0.124998 2.31253L-0.596499 3.00494L-0.595156 3.00635L0.124998 2.31253ZM15.1113 17.8672L15.8325 17.1745L15.8315 17.1734L15.1113 17.8672ZM15.4209 18L15.42 19L15.4209 19L15.4209 18ZM47.5791 18L47.5802 17L47.5791 17L47.5791 18ZM48.0127 18.4444L49.0127 18.4484L49.0127 18.4431L48.0127 18.4444ZM48 21.5557L47 21.5516L47 21.5569L48 21.5557ZM48.4336 22L48.4319 23L48.4336 23L48.4336 22ZM271.566 22L271.566 23L271.568 23L271.566 22ZM272 21.5557L273 21.5569L273 21.5516L272 21.5557ZM271.987 18.4443L270.987 18.4431L270.987 18.4484L271.987 18.4443ZM272.421 18L272.421 17L272.42 17L272.421 18ZM304.579 18L304.579 19L304.58 19L304.579 18ZM304.889 17.8672L304.169 17.1734L304.167 17.1745L304.889 17.8672ZM319.875 2.3125L320.595 3.00633L320.596 3.00491L319.875 2.3125ZM320 5.60645L321 5.60682L321 5.60645L320 5.60645ZM319.877 5.91602L319.151 5.22822L319.143 5.23686L319.877 5.91602ZM303.284 23.8486L304.01 24.5369L304.018 24.5278L303.284 23.8486ZM302.973 23.9834L302.973 24.9834L302.974 24.9834L302.973 23.9834ZM277.434 23.9834L277.434 22.9834L277.432 22.9834L277.434 23.9834ZM277 24.4277L276 24.4259L276 24.4277L277 24.4277ZM277 27.5557L278 27.5569L278 27.5557L277 27.5557ZM276.566 28L276.566 29L276.568 29L276.566 28ZM43.4336 28L43.4353 27C43.7695 27.0006 43.9997 27.2712 44 27.5545L43 27.5557L42 27.5569C42.0009 28.3306 42.619 28.9986 43.4319 29L43.4336 28ZM43 27.5557L44 27.5557L44 24.4278L43 24.4278L42 24.4278L42 27.5557L43 27.5557ZM43 24.4278L44 24.4259C43.9985 23.6536 43.3816 22.9848 42.5681 22.9834L42.5664 23.9834L42.5647 24.9834C42.2297 24.9829 42.0005 24.7118 42 24.4296L43 24.4278ZM42.5664 23.9834L42.5664 22.9834L17.0273 22.9834L17.0273 23.9834L17.0273 24.9834L42.5664 24.9834L42.5664 23.9834ZM17.0273 23.9834L17.0284 22.9834C17.1874 22.9836 17.3359 23.0493 17.4413 23.1604L16.7158 23.8487L15.9903 24.5369C16.2591 24.8202 16.6329 24.983 17.0263 24.9834L17.0273 23.9834ZM16.7158 23.8487L17.4498 23.1695L0.857054 5.23689L0.123045 5.91604L-0.610964 6.5952L15.9818 24.5278L16.7158 23.8487ZM0.123045 5.91604L0.848997 5.22829C0.946714 5.33145 0.999937 5.46665 0.999998 5.6061L-1.95771e-06 5.60647L-1 5.60684C-0.999849 5.97755 -0.857851 6.33468 -0.602907 6.6038L0.123045 5.91604ZM-1.95771e-06 5.60647L0.999998 5.60647L0.999998 2.00003L-2.27299e-06 2.00003L-1 2.00003L-1 5.60647L-1.95771e-06 5.60647ZM-2.27299e-06 2.00003L-1 2.00003C-1 2.37235 -0.856753 2.73376 -0.596499 3.00494L0.124998 2.31253L0.846494 1.62011C0.94705 1.72489 0.999998 1.86106 0.999998 2.00003L-2.27299e-06 2.00003ZM0.124998 2.31253L-0.595156 3.00635L14.3912 18.561L15.1113 17.8672L15.8315 17.1734L0.845152 1.6187L0.124998 2.31253ZM15.1113 17.8672L14.3901 18.5599C14.6582 18.8391 15.0293 18.9997 15.42 19L15.4209 18L15.4218 17C15.58 17.0002 15.7275 17.0652 15.8325 17.1745L15.1113 17.8672ZM15.4209 18L15.4209 19L47.5791 19L47.5791 18L47.5791 17L15.4209 17L15.4209 18ZM47.5791 18L47.578 19C47.2428 18.9997 47.013 18.7281 47.0127 18.4456L48.0127 18.4444L49.0127 18.4431C49.0117 17.67 48.3943 17.0009 47.5802 17L47.5791 18ZM48.0127 18.4444L47.0127 18.4403L47 21.5516L48 21.5557L49 21.5598L49.0127 18.4484L48.0127 18.4444ZM48 21.5557L47 21.5569C47.0009 22.3306 47.619 22.9986 48.4319 23L48.4336 22L48.4353 21C48.7695 21.0006 48.9997 21.2712 49 21.5545L48 21.5557ZM48.4336 22L48.4336 23L271.566 23L271.566 22L271.566 21L48.4336 21L48.4336 22ZM271.566 22L271.568 23C272.381 22.9986 272.999 22.3305 273 21.5569L272 21.5557L271 21.5544C271 21.2712 271.23 21.0006 271.565 21L271.566 22ZM272 21.5557L273 21.5516L272.987 18.4403L271.987 18.4443L270.987 18.4484L271 21.5597L272 21.5557ZM271.987 18.4443L272.987 18.4456C272.987 18.7281 272.757 18.9996 272.422 19L272.421 18L272.42 17C271.606 17.0009 270.988 17.67 270.987 18.4431L271.987 18.4443ZM272.421 18L272.421 19L304.579 19L304.579 18L304.579 17L272.421 17L272.421 18ZM304.579 18L304.58 19C304.971 18.9997 305.342 18.8391 305.61 18.5599L304.889 17.8672L304.167 17.1745C304.272 17.0651 304.42 17.0001 304.578 17L304.579 18ZM304.889 17.8672L305.609 18.561L320.595 3.00633L319.875 2.3125L319.155 1.61867L304.169 17.1734L304.889 17.8672ZM319.875 2.3125L320.596 3.00491C320.857 2.73373 321 2.37233 321 2L320 2L319 2C319 1.86103 319.053 1.72486 319.153 1.62009L319.875 2.3125ZM320 2L319 2L319 5.60645L320 5.60645L321 5.60645L321 2L320 2ZM320 5.60645L319 5.60608C319 5.46663 319.053 5.33142 319.151 5.22826L319.877 5.91602L320.603 6.60377C320.858 6.33466 321 5.97752 321 5.60682L320 5.60645ZM319.877 5.91602L319.143 5.23686L302.55 23.1695L303.284 23.8486L304.018 24.5278L320.611 6.59517L319.877 5.91602ZM303.284 23.8486L302.559 23.1604C302.664 23.0493 302.813 22.9836 302.972 22.9834L302.973 23.9834L302.974 24.9834C303.367 24.983 303.741 24.8202 304.01 24.5368L303.284 23.8486ZM302.973 23.9834L302.973 22.9834L277.434 22.9834L277.434 23.9834L277.434 24.9834L302.973 24.9834L302.973 23.9834ZM277.434 23.9834L277.432 22.9834C276.618 22.9848 276.001 23.6535 276 24.4259L277 24.4277L278 24.4296C277.999 24.7118 277.77 24.9828 277.435 24.9834L277.434 23.9834ZM277 24.4277L276 24.4277L276 27.5557L277 27.5557L278 27.5557L278 24.4277L277 24.4277ZM277 27.5557L276 27.5544C276 27.2712 276.23 27.0006 276.565 27L276.566 28L276.568 29C277.381 28.9986 277.999 28.3305 278 27.5569L277 27.5557ZM276.566 28L276.566 27L43.4336 27L43.4336 28L43.4336 29L276.566 29L276.566 28Z" fill="#00AEEF" mask="url(#path-1-inside-1_115_2840)"/>
<g filter="url(#filter0_f_115_2840)">
<mask id="path-3-inside-2_115_2840" fill="white">
<path d="M43.4336 28C43.1942 27.9996 43.0003 27.8009 43 27.5557L43 24.4278C42.9995 24.1827 42.8057 23.9838 42.5664 23.9834L17.0273 23.9834C16.9102 23.9833 16.7975 23.9348 16.7158 23.8487L0.123045 5.91604C0.0444317 5.83307 2.857e-05 5.7221 -1.95771e-06 5.60647L-2.27299e-06 2.00003C-2.26279e-06 2.11671 0.0451332 2.22932 0.124998 2.31253L15.1113 17.8672C15.1929 17.9521 15.3046 17.9999 15.4209 18L47.5791 18C47.8186 18.0003 48.0124 18.1991 48.0127 18.4444L48 21.5557C48.0003 21.8009 48.1942 21.9996 48.4336 22L271.566 22C271.806 21.9996 272 21.8009 272 21.5557L271.987 18.4443C271.988 18.1991 272.181 18.0003 272.421 18L304.579 18C304.695 17.9999 304.807 17.9521 304.889 17.8672L319.875 2.3125C319.955 2.22929 320 2.11668 320 2L320 5.60645C320 5.72207 319.956 5.83304 319.877 5.91602L303.284 23.8486C303.202 23.9347 303.09 23.9833 302.973 23.9834L277.434 23.9834C277.194 23.9838 277 24.1827 277 24.4277L277 27.5557C277 27.8009 276.806 27.9996 276.566 28L43.4336 28Z"/>
</mask>
<path d="M43.4336 28L43.4319 29L43.4336 29L43.4336 28ZM43 27.5557L42 27.5557L42 27.5569L43 27.5557ZM43 24.4278L44 24.4278L44 24.4259L43 24.4278ZM42.5664 23.9834L42.5681 22.9834L42.5664 22.9834L42.5664 23.9834ZM17.0273 23.9834L17.0263 24.9834L17.0273 24.9834L17.0273 23.9834ZM16.7158 23.8487L15.9818 24.5279L15.9903 24.5369L16.7158 23.8487ZM0.123045 5.91604L0.857084 5.23684L0.848997 5.22829L0.123045 5.91604ZM-1.95771e-06 5.60647L-1 5.60647L-1 5.60684L-1.95771e-06 5.60647ZM0.124998 2.31253L-0.596499 3.00494L-0.595156 3.00635L0.124998 2.31253ZM15.1113 17.8672L15.8325 17.1745L15.8315 17.1734L15.1113 17.8672ZM15.4209 18L15.42 19L15.4209 19L15.4209 18ZM47.5791 18L47.5802 17L47.5791 17L47.5791 18ZM48.0127 18.4444L49.0127 18.4484L49.0127 18.4431L48.0127 18.4444ZM48 21.5557L47 21.5516L47 21.5569L48 21.5557ZM48.4336 22L48.4319 23L48.4336 23L48.4336 22ZM271.566 22L271.566 23L271.568 23L271.566 22ZM272 21.5557L273 21.5569L273 21.5516L272 21.5557ZM271.987 18.4443L270.987 18.4431L270.987 18.4484L271.987 18.4443ZM272.421 18L272.421 17L272.42 17L272.421 18ZM304.579 18L304.579 19L304.58 19L304.579 18ZM304.889 17.8672L304.169 17.1734L304.167 17.1745L304.889 17.8672ZM319.875 2.3125L320.595 3.00633L320.596 3.00491L319.875 2.3125ZM320 5.60645L321 5.60682L321 5.60645L320 5.60645ZM319.877 5.91602L319.151 5.22822L319.143 5.23686L319.877 5.91602ZM303.284 23.8486L304.01 24.5369L304.018 24.5278L303.284 23.8486ZM302.973 23.9834L302.973 24.9834L302.974 24.9834L302.973 23.9834ZM277.434 23.9834L277.434 22.9834L277.432 22.9834L277.434 23.9834ZM277 24.4277L276 24.4259L276 24.4277L277 24.4277ZM277 27.5557L278 27.5569L278 27.5557L277 27.5557ZM276.566 28L276.566 29L276.568 29L276.566 28ZM43.4336 28L43.4353 27C43.7695 27.0006 43.9997 27.2712 44 27.5545L43 27.5557L42 27.5569C42.0009 28.3306 42.619 28.9986 43.4319 29L43.4336 28ZM43 27.5557L44 27.5557L44 24.4278L43 24.4278L42 24.4278L42 27.5557L43 27.5557ZM43 24.4278L44 24.4259C43.9985 23.6536 43.3816 22.9848 42.5681 22.9834L42.5664 23.9834L42.5647 24.9834C42.2297 24.9829 42.0005 24.7118 42 24.4296L43 24.4278ZM42.5664 23.9834L42.5664 22.9834L17.0273 22.9834L17.0273 23.9834L17.0273 24.9834L42.5664 24.9834L42.5664 23.9834ZM17.0273 23.9834L17.0284 22.9834C17.1874 22.9836 17.3359 23.0493 17.4413 23.1604L16.7158 23.8487L15.9903 24.5369C16.2591 24.8202 16.6329 24.983 17.0263 24.9834L17.0273 23.9834ZM16.7158 23.8487L17.4498 23.1695L0.857054 5.23689L0.123045 5.91604L-0.610964 6.5952L15.9818 24.5278L16.7158 23.8487ZM0.123045 5.91604L0.848997 5.22829C0.946714 5.33145 0.999937 5.46665 0.999998 5.6061L-1.95771e-06 5.60647L-1 5.60684C-0.999849 5.97755 -0.857851 6.33468 -0.602907 6.6038L0.123045 5.91604ZM-1.95771e-06 5.60647L0.999998 5.60647L0.999998 2.00003L-2.27299e-06 2.00003L-1 2.00003L-1 5.60647L-1.95771e-06 5.60647ZM-2.27299e-06 2.00003L-1 2.00003C-1 2.37235 -0.856753 2.73376 -0.596499 3.00494L0.124998 2.31253L0.846494 1.62011C0.94705 1.72489 0.999998 1.86106 0.999998 2.00003L-2.27299e-06 2.00003ZM0.124998 2.31253L-0.595156 3.00635L14.3912 18.561L15.1113 17.8672L15.8315 17.1734L0.845152 1.6187L0.124998 2.31253ZM15.1113 17.8672L14.3901 18.5599C14.6582 18.8391 15.0293 18.9997 15.42 19L15.4209 18L15.4218 17C15.58 17.0002 15.7275 17.0652 15.8325 17.1745L15.1113 17.8672ZM15.4209 18L15.4209 19L47.5791 19L47.5791 18L47.5791 17L15.4209 17L15.4209 18ZM47.5791 18L47.578 19C47.2428 18.9997 47.013 18.7281 47.0127 18.4456L48.0127 18.4444L49.0127 18.4431C49.0117 17.67 48.3943 17.0009 47.5802 17L47.5791 18ZM48.0127 18.4444L47.0127 18.4403L47 21.5516L48 21.5557L49 21.5598L49.0127 18.4484L48.0127 18.4444ZM48 21.5557L47 21.5569C47.0009 22.3306 47.619 22.9986 48.4319 23L48.4336 22L48.4353 21C48.7695 21.0006 48.9997 21.2712 49 21.5545L48 21.5557ZM48.4336 22L48.4336 23L271.566 23L271.566 22L271.566 21L48.4336 21L48.4336 22ZM271.566 22L271.568 23C272.381 22.9986 272.999 22.3305 273 21.5569L272 21.5557L271 21.5544C271 21.2712 271.23 21.0006 271.565 21L271.566 22ZM272 21.5557L273 21.5516L272.987 18.4403L271.987 18.4443L270.987 18.4484L271 21.5597L272 21.5557ZM271.987 18.4443L272.987 18.4456C272.987 18.7281 272.757 18.9996 272.422 19L272.421 18L272.42 17C271.606 17.0009 270.988 17.67 270.987 18.4431L271.987 18.4443ZM272.421 18L272.421 19L304.579 19L304.579 18L304.579 17L272.421 17L272.421 18ZM304.579 18L304.58 19C304.971 18.9997 305.342 18.8391 305.61 18.5599L304.889 17.8672L304.167 17.1745C304.272 17.0651 304.42 17.0001 304.578 17L304.579 18ZM304.889 17.8672L305.609 18.561L320.595 3.00633L319.875 2.3125L319.155 1.61867L304.169 17.1734L304.889 17.8672ZM319.875 2.3125L320.596 3.00491C320.857 2.73373 321 2.37233 321 2L320 2L319 2C319 1.86103 319.053 1.72486 319.153 1.62009L319.875 2.3125ZM320 2L319 2L319 5.60645L320 5.60645L321 5.60645L321 2L320 2ZM320 5.60645L319 5.60608C319 5.46663 319.053 5.33142 319.151 5.22826L319.877 5.91602L320.603 6.60377C320.858 6.33466 321 5.97752 321 5.60682L320 5.60645ZM319.877 5.91602L319.143 5.23686L302.55 23.1695L303.284 23.8486L304.018 24.5278L320.611 6.59517L319.877 5.91602ZM303.284 23.8486L302.559 23.1604C302.664 23.0493 302.813 22.9836 302.972 22.9834L302.973 23.9834L302.974 24.9834C303.367 24.983 303.741 24.8202 304.01 24.5368L303.284 23.8486ZM302.973 23.9834L302.973 22.9834L277.434 22.9834L277.434 23.9834L277.434 24.9834L302.973 24.9834L302.973 23.9834ZM277.434 23.9834L277.432 22.9834C276.618 22.9848 276.001 23.6535 276 24.4259L277 24.4277L278 24.4296C277.999 24.7118 277.77 24.9828 277.435 24.9834L277.434 23.9834ZM277 24.4277L276 24.4277L276 27.5557L277 27.5557L278 27.5557L278 24.4277L277 24.4277ZM277 27.5557L276 27.5544C276 27.2712 276.23 27.0006 276.565 27L276.566 28L276.568 29C277.381 28.9986 277.999 28.3305 278 27.5569L277 27.5557ZM276.566 28L276.566 27L43.4336 27L43.4336 28L43.4336 29L276.566 29L276.566 28Z" fill="#00AEEF" mask="url(#path-3-inside-2_115_2840)"/>
</g>
<g filter="url(#filter1_f_115_2840)">
<mask id="path-5-inside-3_115_2840" fill="white">
<path d="M43.4336 28C43.1942 27.9996 43.0003 27.8009 43 27.5557L43 24.4278C42.9995 24.1827 42.8057 23.9838 42.5664 23.9834L17.0273 23.9834C16.9102 23.9833 16.7975 23.9348 16.7158 23.8487L0.123045 5.91604C0.0444317 5.83307 2.857e-05 5.7221 -1.95771e-06 5.60647L-2.27299e-06 2.00003C-2.26279e-06 2.11671 0.0451332 2.22932 0.124998 2.31253L15.1113 17.8672C15.1929 17.9521 15.3046 17.9999 15.4209 18L47.5791 18C47.8186 18.0003 48.0124 18.1991 48.0127 18.4444L48 21.5557C48.0003 21.8009 48.1942 21.9996 48.4336 22L271.566 22C271.806 21.9996 272 21.8009 272 21.5557L271.987 18.4443C271.988 18.1991 272.181 18.0003 272.421 18L304.579 18C304.695 17.9999 304.807 17.9521 304.889 17.8672L319.875 2.3125C319.955 2.22929 320 2.11668 320 2L320 5.60645C320 5.72207 319.956 5.83304 319.877 5.91602L303.284 23.8486C303.202 23.9347 303.09 23.9833 302.973 23.9834L277.434 23.9834C277.194 23.9838 277 24.1827 277 24.4277L277 27.5557C277 27.8009 276.806 27.9996 276.566 28L43.4336 28Z"/>
</mask>
<path d="M43.4336 28L43.4319 29L43.4336 29L43.4336 28ZM43 27.5557L42 27.5557L42 27.5569L43 27.5557ZM43 24.4278L44 24.4278L44 24.4259L43 24.4278ZM42.5664 23.9834L42.5681 22.9834L42.5664 22.9834L42.5664 23.9834ZM17.0273 23.9834L17.0263 24.9834L17.0273 24.9834L17.0273 23.9834ZM16.7158 23.8487L15.9818 24.5279L15.9903 24.5369L16.7158 23.8487ZM0.123045 5.91604L0.857084 5.23684L0.848997 5.22829L0.123045 5.91604ZM-1.95771e-06 5.60647L-1 5.60647L-1 5.60684L-1.95771e-06 5.60647ZM0.124998 2.31253L-0.596499 3.00494L-0.595156 3.00635L0.124998 2.31253ZM15.1113 17.8672L15.8325 17.1745L15.8315 17.1734L15.1113 17.8672ZM15.4209 18L15.42 19L15.4209 19L15.4209 18ZM47.5791 18L47.5802 17L47.5791 17L47.5791 18ZM48.0127 18.4444L49.0127 18.4484L49.0127 18.4431L48.0127 18.4444ZM48 21.5557L47 21.5516L47 21.5569L48 21.5557ZM48.4336 22L48.4319 23L48.4336 23L48.4336 22ZM271.566 22L271.566 23L271.568 23L271.566 22ZM272 21.5557L273 21.5569L273 21.5516L272 21.5557ZM271.987 18.4443L270.987 18.4431L270.987 18.4484L271.987 18.4443ZM272.421 18L272.421 17L272.42 17L272.421 18ZM304.579 18L304.579 19L304.58 19L304.579 18ZM304.889 17.8672L304.169 17.1734L304.167 17.1745L304.889 17.8672ZM319.875 2.3125L320.595 3.00633L320.596 3.00491L319.875 2.3125ZM320 5.60645L321 5.60682L321 5.60645L320 5.60645ZM319.877 5.91602L319.151 5.22822L319.143 5.23686L319.877 5.91602ZM303.284 23.8486L304.01 24.5369L304.018 24.5278L303.284 23.8486ZM302.973 23.9834L302.973 24.9834L302.974 24.9834L302.973 23.9834ZM277.434 23.9834L277.434 22.9834L277.432 22.9834L277.434 23.9834ZM277 24.4277L276 24.4259L276 24.4277L277 24.4277ZM277 27.5557L278 27.5569L278 27.5557L277 27.5557ZM276.566 28L276.566 29L276.568 29L276.566 28ZM43.4336 28L43.4353 27C43.7695 27.0006 43.9997 27.2712 44 27.5545L43 27.5557L42 27.5569C42.0009 28.3306 42.619 28.9986 43.4319 29L43.4336 28ZM43 27.5557L44 27.5557L44 24.4278L43 24.4278L42 24.4278L42 27.5557L43 27.5557ZM43 24.4278L44 24.4259C43.9985 23.6536 43.3816 22.9848 42.5681 22.9834L42.5664 23.9834L42.5647 24.9834C42.2297 24.9829 42.0005 24.7118 42 24.4296L43 24.4278ZM42.5664 23.9834L42.5664 22.9834L17.0273 22.9834L17.0273 23.9834L17.0273 24.9834L42.5664 24.9834L42.5664 23.9834ZM17.0273 23.9834L17.0284 22.9834C17.1874 22.9836 17.3359 23.0493 17.4413 23.1604L16.7158 23.8487L15.9903 24.5369C16.2591 24.8202 16.6329 24.983 17.0263 24.9834L17.0273 23.9834ZM16.7158 23.8487L17.4498 23.1695L0.857054 5.23689L0.123045 5.91604L-0.610964 6.5952L15.9818 24.5278L16.7158 23.8487ZM0.123045 5.91604L0.848997 5.22829C0.946714 5.33145 0.999937 5.46665 0.999998 5.6061L-1.95771e-06 5.60647L-1 5.60684C-0.999849 5.97755 -0.857851 6.33468 -0.602907 6.6038L0.123045 5.91604ZM-1.95771e-06 5.60647L0.999998 5.60647L0.999998 2.00003L-2.27299e-06 2.00003L-1 2.00003L-1 5.60647L-1.95771e-06 5.60647ZM-2.27299e-06 2.00003L-1 2.00003C-1 2.37235 -0.856753 2.73376 -0.596499 3.00494L0.124998 2.31253L0.846494 1.62011C0.94705 1.72489 0.999998 1.86106 0.999998 2.00003L-2.27299e-06 2.00003ZM0.124998 2.31253L-0.595156 3.00635L14.3912 18.561L15.1113 17.8672L15.8315 17.1734L0.845152 1.6187L0.124998 2.31253ZM15.1113 17.8672L14.3901 18.5599C14.6582 18.8391 15.0293 18.9997 15.42 19L15.4209 18L15.4218 17C15.58 17.0002 15.7275 17.0652 15.8325 17.1745L15.1113 17.8672ZM15.4209 18L15.4209 19L47.5791 19L47.5791 18L47.5791 17L15.4209 17L15.4209 18ZM47.5791 18L47.578 19C47.2428 18.9997 47.013 18.7281 47.0127 18.4456L48.0127 18.4444L49.0127 18.4431C49.0117 17.67 48.3943 17.0009 47.5802 17L47.5791 18ZM48.0127 18.4444L47.0127 18.4403L47 21.5516L48 21.5557L49 21.5598L49.0127 18.4484L48.0127 18.4444ZM48 21.5557L47 21.5569C47.0009 22.3306 47.619 22.9986 48.4319 23L48.4336 22L48.4353 21C48.7695 21.0006 48.9997 21.2712 49 21.5545L48 21.5557ZM48.4336 22L48.4336 23L271.566 23L271.566 22L271.566 21L48.4336 21L48.4336 22ZM271.566 22L271.568 23C272.381 22.9986 272.999 22.3305 273 21.5569L272 21.5557L271 21.5544C271 21.2712 271.23 21.0006 271.565 21L271.566 22ZM272 21.5557L273 21.5516L272.987 18.4403L271.987 18.4443L270.987 18.4484L271 21.5597L272 21.5557ZM271.987 18.4443L272.987 18.4456C272.987 18.7281 272.757 18.9996 272.422 19L272.421 18L272.42 17C271.606 17.0009 270.988 17.67 270.987 18.4431L271.987 18.4443ZM272.421 18L272.421 19L304.579 19L304.579 18L304.579 17L272.421 17L272.421 18ZM304.579 18L304.58 19C304.971 18.9997 305.342 18.8391 305.61 18.5599L304.889 17.8672L304.167 17.1745C304.272 17.0651 304.42 17.0001 304.578 17L304.579 18ZM304.889 17.8672L305.609 18.561L320.595 3.00633L319.875 2.3125L319.155 1.61867L304.169 17.1734L304.889 17.8672ZM319.875 2.3125L320.596 3.00491C320.857 2.73373 321 2.37233 321 2L320 2L319 2C319 1.86103 319.053 1.72486 319.153 1.62009L319.875 2.3125ZM320 2L319 2L319 5.60645L320 5.60645L321 5.60645L321 2L320 2ZM320 5.60645L319 5.60608C319 5.46663 319.053 5.33142 319.151 5.22826L319.877 5.91602L320.603 6.60377C320.858 6.33466 321 5.97752 321 5.60682L320 5.60645ZM319.877 5.91602L319.143 5.23686L302.55 23.1695L303.284 23.8486L304.018 24.5278L320.611 6.59517L319.877 5.91602ZM303.284 23.8486L302.559 23.1604C302.664 23.0493 302.813 22.9836 302.972 22.9834L302.973 23.9834L302.974 24.9834C303.367 24.983 303.741 24.8202 304.01 24.5368L303.284 23.8486ZM302.973 23.9834L302.973 22.9834L277.434 22.9834L277.434 23.9834L277.434 24.9834L302.973 24.9834L302.973 23.9834ZM277.434 23.9834L277.432 22.9834C276.618 22.9848 276.001 23.6535 276 24.4259L277 24.4277L278 24.4296C277.999 24.7118 277.77 24.9828 277.435 24.9834L277.434 23.9834ZM277 24.4277L276 24.4277L276 27.5557L277 27.5557L278 27.5557L278 24.4277L277 24.4277ZM277 27.5557L276 27.5544C276 27.2712 276.23 27.0006 276.565 27L276.566 28L276.568 29C277.381 28.9986 277.999 28.3305 278 27.5569L277 27.5557ZM276.566 28L276.566 27L43.4336 27L43.4336 28L43.4336 29L276.566 29L276.566 28Z" fill="#6ACFF6" mask="url(#path-5-inside-3_115_2840)"/>
</g>
<defs>
<filter id="filter0_f_115_2840" x="-2" y="0" width="324" height="30" filterUnits="userSpaceOnUse" color-interpolation-filters="sRGB">
<feFlood flood-opacity="0" result="BackgroundImageFix"/>
<feBlend mode="normal" in="SourceGraphic" in2="BackgroundImageFix" result="shape"/>
<feGaussianBlur stdDeviation="1" result="effect1_foregroundBlur_115_2840"/>
</filter>
<filter id="filter1_f_115_2840" x="-0.2" y="1.8" width="320.4" height="26.4" filterUnits="userSpaceOnUse" color-interpolation-filters="sRGB">
<feFlood flood-opacity="0" result="BackgroundImageFix"/>
<feBlend mode="normal" in="SourceGraphic" in2="BackgroundImageFix" result="shape"/>
<feGaussianBlur stdDeviation="0.1" result="effect1_foregroundBlur_115_2840"/>
</filter>
</defs>
</svg>
