<svg width="324" height="39" viewBox="0 0 324 39" fill="none" xmlns="http://www.w3.org/2000/svg" preserveAspectRatio="none">
    <ellipse cx="162" cy="13.5" rx="147" ry="13.5" fill="url(#paint0_radial_254_6669)" style="mix-blend-mode:color-dodge"/>
    <mask id="path-2-inside-1_254_6669" fill="white">
        <path d="M45.4336 11C45.1942 11.0004 45.0003 11.1992 45 11.4444L45 14.5723C44.9995 14.8174 44.8057 15.0162 44.5664 15.0166L19.0273 15.0166C18.9101 15.0167 18.7975 15.0653 18.7158 15.1514L2.12305 33.084C2.04444 33.167 2.00004 33.278 2 33.3936L2 37C2 36.8833 2.04515 36.7707 2.125 36.6875L17.1113 21.1328C17.1929 21.0479 17.3046 21.0001 17.4209 21L49.5791 21C49.8186 20.9998 50.0124 20.801 50.0127 20.5557L50 17.4444C50.0003 17.1992 50.1942 17.0004 50.4336 17L273.566 17C273.806 17.0004 274 17.1991 274 17.4443L273.987 20.5557C273.988 20.801 274.181 20.9997 274.421 21L306.579 21C306.695 21.0001 306.807 21.0479 306.889 21.1328L321.875 36.6875C321.955 36.7707 322 36.8833 322 37L322 33.3936C322 33.2779 321.956 33.167 321.877 33.084L305.284 15.1514C305.202 15.0653 305.09 15.0167 304.973 15.0166L279.434 15.0166C279.194 15.0162 279 14.8173 279 14.5723L279 11.4443C279 11.1991 278.806 11.0004 278.566 11L45.4336 11Z"/>
    </mask>
    <path d="M45.4336 11C45.1942 11.0004 45.0003 11.1992 45 11.4444L45 14.5723C44.9995 14.8174 44.8057 15.0162 44.5664 15.0166L19.0273 15.0166C18.9101 15.0167 18.7975 15.0653 18.7158 15.1514L2.12305 33.084C2.04444 33.167 2.00004 33.278 2 33.3936L2 37C2 36.8833 2.04515 36.7707 2.125 36.6875L17.1113 21.1328C17.1929 21.0479 17.3046 21.0001 17.4209 21L49.5791 21C49.8186 20.9998 50.0124 20.801 50.0127 20.5557L50 17.4444C50.0003 17.1992 50.1942 17.0004 50.4336 17L273.566 17C273.806 17.0004 274 17.1991 274 17.4443L273.987 20.5557C273.988 20.801 274.181 20.9997 274.421 21L306.579 21C306.695 21.0001 306.807 21.0479 306.889 21.1328L321.875 36.6875C321.955 36.7707 322 36.8833 322 37L322 33.3936C322 33.2779 321.956 33.167 321.877 33.084L305.284 15.1514C305.202 15.0653 305.09 15.0167 304.973 15.0166L279.434 15.0166C279.194 15.0162 279 14.8173 279 14.5723L279 11.4443C279 11.1991 278.806 11.0004 278.566 11L45.4336 11Z" fill="#283E95"/>
    <path d="M45.4336 11L45.4319 10L45.4336 10L45.4336 11ZM45 11.4444L44 11.4444L44 11.4431L45 11.4444ZM45 14.5723L46 14.5723L46 14.5742L45 14.5723ZM44.5664 15.0166L44.5681 16.0166L44.5664 16.0166L44.5664 15.0166ZM19.0273 15.0166L19.0263 14.0166L19.0273 14.0166L19.0273 15.0166ZM18.7158 15.1514L17.9818 14.4722L17.9903 14.4632L18.7158 15.1514ZM2.12305 33.084L2.8571 33.7632L2.84899 33.7718L2.12305 33.084ZM2 33.3936L1 33.3936L1 33.3932L2 33.3936ZM2.125 36.6875L1.4035 35.9951L1.40486 35.9937L2.125 36.6875ZM17.1113 21.1328L17.8326 21.8255L17.8315 21.8267L17.1113 21.1328ZM17.4209 21L17.42 20L17.4209 20L17.4209 21ZM49.5791 21L49.5802 22L49.5791 22L49.5791 21ZM50.0127 20.5557L51.0127 20.5516L51.0127 20.5569L50.0127 20.5557ZM50 17.4444L49 17.4484L49 17.4431L50 17.4444ZM50.4336 17L50.4319 16L50.4336 16L50.4336 17ZM273.566 17L273.566 16L273.568 16L273.566 17ZM274 17.4443L275 17.4431L275 17.4484L274 17.4443ZM273.987 20.5557L272.987 20.5569L272.987 20.5516L273.987 20.5557ZM274.421 21L274.421 22L274.42 22L274.421 21ZM306.579 21L306.579 20L306.58 20L306.579 21ZM306.889 21.1328L306.169 21.8266L306.167 21.8255L306.889 21.1328ZM321.875 36.6875L322.595 35.9937L322.597 35.9951L321.875 36.6875ZM322 33.3936L323 33.3932L323 33.3936L322 33.3936ZM321.877 33.084L321.151 33.7718L321.143 33.7631L321.877 33.084ZM305.284 15.1514L306.01 14.4631L306.018 14.4722L305.284 15.1514ZM304.973 15.0166L304.973 14.0166L304.974 14.0166L304.973 15.0166ZM279.434 15.0166L279.434 16.0166L279.432 16.0166L279.434 15.0166ZM279 14.5723L278 14.5741L278 14.5723L279 14.5723ZM279 11.4443L280 11.4431L280 11.4443L279 11.4443ZM278.566 11L278.566 10L278.568 10L278.566 11ZM45.4336 11L45.4353 12C45.7695 11.9995 45.9997 11.7288 46 11.4456L45 11.4444L44 11.4431C44.0009 10.6695 44.619 10.0014 45.4319 10L45.4336 11ZM45 11.4444L46 11.4444L46 14.5723L45 14.5723L44 14.5723L44 11.4444L45 11.4444ZM45 14.5723L46 14.5742C45.9985 15.3465 45.3816 16.0152 44.5681 16.0166L44.5664 15.0166L44.5647 14.0166C44.2298 14.0172 44.0005 14.2882 44 14.5704L45 14.5723ZM44.5664 15.0166L44.5664 16.0166L19.0273 16.0166L19.0273 15.0166L19.0273 14.0166L44.5664 14.0166L44.5664 15.0166ZM19.0273 15.0166L19.0284 16.0166C19.1874 16.0165 19.3359 15.9507 19.4413 15.8396L18.7158 15.1514L17.9903 14.4632C18.2591 14.1799 18.6329 14.017 19.0263 14.0166L19.0273 15.0166ZM18.7158 15.1514L19.4498 15.8305L2.85704 33.7632L2.12305 33.084L1.38905 32.4049L17.9818 14.4722L18.7158 15.1514ZM2.12305 33.084L2.84899 33.7718C2.94673 33.6686 2.99995 33.5334 3 33.394L2 33.3936L1 33.3932C1.00014 33.0225 1.14215 32.6654 1.39711 32.3963L2.12305 33.084ZM2 33.3936L3 33.3936L3 37L2 37L1 37L1 33.3936L2 33.3936ZM2 37L1 37C1 36.6277 1.14325 36.2663 1.4035 35.9951L2.125 36.6875L2.84651 37.3799C2.94705 37.2752 3 37.139 3 37L2 37ZM2.125 36.6875L1.40486 35.9937L16.3912 20.439L17.1113 21.1328L17.8315 21.8267L2.84514 37.3814L2.125 36.6875ZM17.1113 21.1328L16.3901 20.4401C16.6582 20.161 17.0293 20.0004 17.42 20L17.4209 21L17.4218 22C17.5799 21.9999 17.7275 21.9349 17.8326 21.8255L17.1113 21.1328ZM17.4209 21L17.4209 20L49.5791 20L49.5791 21L49.5791 22L17.4209 22L17.4209 21ZM49.5791 21L49.578 20C49.2428 20.0004 49.013 20.2719 49.0127 20.5545L50.0127 20.5557L51.0127 20.5569C51.0117 21.33 50.3943 21.9991 49.5802 22L49.5791 21ZM50.0127 20.5557L49.0127 20.5598L49 17.4484L50 17.4444L51 17.4403L51.0127 20.5516L50.0127 20.5557ZM50 17.4444L49 17.4431C49.0009 16.6695 49.619 16.0014 50.4319 16L50.4336 17L50.4353 18C50.7695 17.9995 50.9997 17.7288 51 17.4456L50 17.4444ZM50.4336 17L50.4336 16L273.566 16L273.566 17L273.566 18L50.4336 18L50.4336 17ZM273.566 17L273.568 16C274.381 16.0014 274.999 16.6695 275 17.4431L274 17.4443L273 17.4456C273 17.7288 273.23 17.9994 273.565 18L273.566 17ZM274 17.4443L275 17.4484L274.987 20.5597L273.987 20.5557L272.987 20.5516L273 17.4403L274 17.4443ZM273.987 20.5557L274.987 20.5544C274.987 20.2719 274.757 20.0004 274.422 20L274.421 21L274.42 22C273.606 21.9991 272.988 21.33 272.987 20.5569L273.987 20.5557ZM274.421 21L274.421 20L306.579 20L306.579 21L306.579 22L274.421 22L274.421 21ZM306.579 21L306.58 20C306.971 20.0003 307.342 20.1609 307.61 20.4401L306.889 21.1328L306.167 21.8255C306.272 21.9349 306.42 21.9999 306.578 22L306.579 21ZM306.889 21.1328L307.609 20.439L322.595 35.9937L321.875 36.6875L321.155 37.3813L306.169 21.8266L306.889 21.1328ZM321.875 36.6875L322.597 35.9951C322.857 36.2663 323 36.6277 323 37L322 37L321 37C321 37.139 321.053 37.2751 321.153 37.3799L321.875 36.6875ZM322 37L321 37L321 33.3936L322 33.3936L323 33.3936L323 37L322 37ZM322 33.3936L321 33.3939C321 33.5334 321.053 33.6686 321.151 33.7717L321.877 33.084L322.603 32.3962C322.858 32.6653 323 33.0225 323 33.3932L322 33.3936ZM321.877 33.084L321.143 33.7631L304.55 15.8305L305.284 15.1514L306.018 14.4722L322.611 32.4048L321.877 33.084ZM305.284 15.1514L304.559 15.8396C304.664 15.9507 304.813 16.0164 304.972 16.0166L304.973 15.0166L304.974 14.0166C305.367 14.017 305.741 14.1798 306.01 14.4632L305.284 15.1514ZM304.973 15.0166L304.973 16.0166L279.434 16.0166L279.434 15.0166L279.434 14.0166L304.973 14.0166L304.973 15.0166ZM279.434 15.0166L279.432 16.0166C278.618 16.0152 278.001 15.3465 278 14.5741L279 14.5723L280 14.5704C279.999 14.2882 279.77 14.0172 279.435 14.0166L279.434 15.0166ZM279 14.5723L278 14.5723L278 11.4443L279 11.4443L280 11.4443L280 14.5723L279 14.5723ZM279 11.4443L278 11.4456C278 11.7288 278.23 11.9994 278.565 12L278.566 11L278.568 10C279.381 10.0014 279.999 10.6695 280 11.4431L279 11.4443ZM278.566 11L278.566 12L45.4336 12L45.4336 11L45.4336 10L278.566 10L278.566 11Z" fill="#00AEEF" mask="url(#path-2-inside-1_254_6669)"/>
    <g filter="url(#filter0_f_254_6669)">
        <mask id="path-4-inside-2_254_6669" fill="white">
            <path d="M45.4336 11C45.1942 11.0004 45.0003 11.1992 45 11.4444L45 14.5723C44.9995 14.8174 44.8057 15.0162 44.5664 15.0166L19.0273 15.0166C18.9101 15.0167 18.7975 15.0653 18.7158 15.1514L2.12305 33.084C2.04444 33.167 2.00004 33.278 2 33.3936L2 37C2 36.8833 2.04515 36.7707 2.125 36.6875L17.1113 21.1328C17.1929 21.0479 17.3046 21.0001 17.4209 21L49.5791 21C49.8186 20.9998 50.0124 20.801 50.0127 20.5557L50 17.4444C50.0003 17.1992 50.1942 17.0004 50.4336 17L273.566 17C273.806 17.0004 274 17.1991 274 17.4443L273.987 20.5557C273.988 20.801 274.181 20.9997 274.421 21L306.579 21C306.695 21.0001 306.807 21.0479 306.889 21.1328L321.875 36.6875C321.955 36.7707 322 36.8833 322 37L322 33.3936C322 33.2779 321.956 33.167 321.877 33.084L305.284 15.1514C305.202 15.0653 305.09 15.0167 304.973 15.0166L279.434 15.0166C279.194 15.0162 279 14.8173 279 14.5723L279 11.4443C279 11.1991 278.806 11.0004 278.566 11L45.4336 11Z"/>
        </mask>
        <path d="M45.4336 11L45.4319 10L45.4336 10L45.4336 11ZM45 11.4444L44 11.4444L44 11.4431L45 11.4444ZM45 14.5723L46 14.5723L46 14.5742L45 14.5723ZM44.5664 15.0166L44.5681 16.0166L44.5664 16.0166L44.5664 15.0166ZM19.0273 15.0166L19.0263 14.0166L19.0273 14.0166L19.0273 15.0166ZM18.7158 15.1514L17.9818 14.4722L17.9903 14.4632L18.7158 15.1514ZM2.12305 33.084L2.8571 33.7632L2.84899 33.7718L2.12305 33.084ZM2 33.3936L1 33.3936L1 33.3932L2 33.3936ZM2.125 36.6875L1.4035 35.9951L1.40486 35.9937L2.125 36.6875ZM17.1113 21.1328L17.8326 21.8255L17.8315 21.8267L17.1113 21.1328ZM17.4209 21L17.42 20L17.4209 20L17.4209 21ZM49.5791 21L49.5802 22L49.5791 22L49.5791 21ZM50.0127 20.5557L51.0127 20.5516L51.0127 20.5569L50.0127 20.5557ZM50 17.4444L49 17.4484L49 17.4431L50 17.4444ZM50.4336 17L50.4319 16L50.4336 16L50.4336 17ZM273.566 17L273.566 16L273.568 16L273.566 17ZM274 17.4443L275 17.4431L275 17.4484L274 17.4443ZM273.987 20.5557L272.987 20.5569L272.987 20.5516L273.987 20.5557ZM274.421 21L274.421 22L274.42 22L274.421 21ZM306.579 21L306.579 20L306.58 20L306.579 21ZM306.889 21.1328L306.169 21.8266L306.167 21.8255L306.889 21.1328ZM321.875 36.6875L322.595 35.9937L322.597 35.9951L321.875 36.6875ZM322 33.3936L323 33.3932L323 33.3936L322 33.3936ZM321.877 33.084L321.151 33.7718L321.143 33.7631L321.877 33.084ZM305.284 15.1514L306.01 14.4631L306.018 14.4722L305.284 15.1514ZM304.973 15.0166L304.973 14.0166L304.974 14.0166L304.973 15.0166ZM279.434 15.0166L279.434 16.0166L279.432 16.0166L279.434 15.0166ZM279 14.5723L278 14.5741L278 14.5723L279 14.5723ZM279 11.4443L280 11.4431L280 11.4443L279 11.4443ZM278.566 11L278.566 10L278.568 10L278.566 11ZM45.4336 11L45.4353 12C45.7695 11.9995 45.9997 11.7288 46 11.4456L45 11.4444L44 11.4431C44.0009 10.6695 44.619 10.0014 45.4319 10L45.4336 11ZM45 11.4444L46 11.4444L46 14.5723L45 14.5723L44 14.5723L44 11.4444L45 11.4444ZM45 14.5723L46 14.5742C45.9985 15.3465 45.3816 16.0152 44.5681 16.0166L44.5664 15.0166L44.5647 14.0166C44.2298 14.0172 44.0005 14.2882 44 14.5704L45 14.5723ZM44.5664 15.0166L44.5664 16.0166L19.0273 16.0166L19.0273 15.0166L19.0273 14.0166L44.5664 14.0166L44.5664 15.0166ZM19.0273 15.0166L19.0284 16.0166C19.1874 16.0165 19.3359 15.9507 19.4413 15.8396L18.7158 15.1514L17.9903 14.4632C18.2591 14.1799 18.6329 14.017 19.0263 14.0166L19.0273 15.0166ZM18.7158 15.1514L19.4498 15.8305L2.85704 33.7632L2.12305 33.084L1.38905 32.4049L17.9818 14.4722L18.7158 15.1514ZM2.12305 33.084L2.84899 33.7718C2.94673 33.6686 2.99995 33.5334 3 33.394L2 33.3936L1 33.3932C1.00014 33.0225 1.14215 32.6654 1.39711 32.3963L2.12305 33.084ZM2 33.3936L3 33.3936L3 37L2 37L1 37L1 33.3936L2 33.3936ZM2 37L1 37C1 36.6277 1.14325 36.2663 1.4035 35.9951L2.125 36.6875L2.84651 37.3799C2.94705 37.2752 3 37.139 3 37L2 37ZM2.125 36.6875L1.40486 35.9937L16.3912 20.439L17.1113 21.1328L17.8315 21.8267L2.84514 37.3814L2.125 36.6875ZM17.1113 21.1328L16.3901 20.4401C16.6582 20.161 17.0293 20.0004 17.42 20L17.4209 21L17.4218 22C17.5799 21.9999 17.7275 21.9349 17.8326 21.8255L17.1113 21.1328ZM17.4209 21L17.4209 20L49.5791 20L49.5791 21L49.5791 22L17.4209 22L17.4209 21ZM49.5791 21L49.578 20C49.2428 20.0004 49.013 20.2719 49.0127 20.5545L50.0127 20.5557L51.0127 20.5569C51.0117 21.33 50.3943 21.9991 49.5802 22L49.5791 21ZM50.0127 20.5557L49.0127 20.5598L49 17.4484L50 17.4444L51 17.4403L51.0127 20.5516L50.0127 20.5557ZM50 17.4444L49 17.4431C49.0009 16.6695 49.619 16.0014 50.4319 16L50.4336 17L50.4353 18C50.7695 17.9995 50.9997 17.7288 51 17.4456L50 17.4444ZM50.4336 17L50.4336 16L273.566 16L273.566 17L273.566 18L50.4336 18L50.4336 17ZM273.566 17L273.568 16C274.381 16.0014 274.999 16.6695 275 17.4431L274 17.4443L273 17.4456C273 17.7288 273.23 17.9994 273.565 18L273.566 17ZM274 17.4443L275 17.4484L274.987 20.5597L273.987 20.5557L272.987 20.5516L273 17.4403L274 17.4443ZM273.987 20.5557L274.987 20.5544C274.987 20.2719 274.757 20.0004 274.422 20L274.421 21L274.42 22C273.606 21.9991 272.988 21.33 272.987 20.5569L273.987 20.5557ZM274.421 21L274.421 20L306.579 20L306.579 21L306.579 22L274.421 22L274.421 21ZM306.579 21L306.58 20C306.971 20.0003 307.342 20.1609 307.61 20.4401L306.889 21.1328L306.167 21.8255C306.272 21.9349 306.42 21.9999 306.578 22L306.579 21ZM306.889 21.1328L307.609 20.439L322.595 35.9937L321.875 36.6875L321.155 37.3813L306.169 21.8266L306.889 21.1328ZM321.875 36.6875L322.597 35.9951C322.857 36.2663 323 36.6277 323 37L322 37L321 37C321 37.139 321.053 37.2751 321.153 37.3799L321.875 36.6875ZM322 37L321 37L321 33.3936L322 33.3936L323 33.3936L323 37L322 37ZM322 33.3936L321 33.3939C321 33.5334 321.053 33.6686 321.151 33.7717L321.877 33.084L322.603 32.3962C322.858 32.6653 323 33.0225 323 33.3932L322 33.3936ZM321.877 33.084L321.143 33.7631L304.55 15.8305L305.284 15.1514L306.018 14.4722L322.611 32.4048L321.877 33.084ZM305.284 15.1514L304.559 15.8396C304.664 15.9507 304.813 16.0164 304.972 16.0166L304.973 15.0166L304.974 14.0166C305.367 14.017 305.741 14.1798 306.01 14.4632L305.284 15.1514ZM304.973 15.0166L304.973 16.0166L279.434 16.0166L279.434 15.0166L279.434 14.0166L304.973 14.0166L304.973 15.0166ZM279.434 15.0166L279.432 16.0166C278.618 16.0152 278.001 15.3465 278 14.5741L279 14.5723L280 14.5704C279.999 14.2882 279.77 14.0172 279.435 14.0166L279.434 15.0166ZM279 14.5723L278 14.5723L278 11.4443L279 11.4443L280 11.4443L280 14.5723L279 14.5723ZM279 11.4443L278 11.4456C278 11.7288 278.23 11.9994 278.565 12L278.566 11L278.568 10C279.381 10.0014 279.999 10.6695 280 11.4431L279 11.4443ZM278.566 11L278.566 12L45.4336 12L45.4336 11L45.4336 10L278.566 10L278.566 11Z" fill="#00AEEF" mask="url(#path-4-inside-2_254_6669)"/>
    </g>
    <g filter="url(#filter1_f_254_6669)">
        <mask id="path-6-inside-3_254_6669" fill="white">
            <path d="M45.4336 11C45.1942 11.0004 45.0003 11.1992 45 11.4444L45 14.5723C44.9995 14.8174 44.8057 15.0162 44.5664 15.0166L19.0273 15.0166C18.9101 15.0167 18.7975 15.0653 18.7158 15.1514L2.12305 33.084C2.04444 33.167 2.00004 33.278 2 33.3936L2 37C2 36.8833 2.04515 36.7707 2.125 36.6875L17.1113 21.1328C17.1929 21.0479 17.3046 21.0001 17.4209 21L49.5791 21C49.8186 20.9998 50.0124 20.801 50.0127 20.5557L50 17.4444C50.0003 17.1992 50.1942 17.0004 50.4336 17L273.566 17C273.806 17.0004 274 17.1991 274 17.4443L273.987 20.5557C273.988 20.801 274.181 20.9997 274.421 21L306.579 21C306.695 21.0001 306.807 21.0479 306.889 21.1328L321.875 36.6875C321.955 36.7707 322 36.8833 322 37L322 33.3936C322 33.2779 321.956 33.167 321.877 33.084L305.284 15.1514C305.202 15.0653 305.09 15.0167 304.973 15.0166L279.434 15.0166C279.194 15.0162 279 14.8173 279 14.5723L279 11.4443C279 11.1991 278.806 11.0004 278.566 11L45.4336 11Z"/>
        </mask>
        <path d="M45.4336 11L45.4319 10L45.4336 10L45.4336 11ZM45 11.4444L44 11.4444L44 11.4431L45 11.4444ZM45 14.5723L46 14.5723L46 14.5742L45 14.5723ZM44.5664 15.0166L44.5681 16.0166L44.5664 16.0166L44.5664 15.0166ZM19.0273 15.0166L19.0263 14.0166L19.0273 14.0166L19.0273 15.0166ZM18.7158 15.1514L17.9818 14.4722L17.9903 14.4632L18.7158 15.1514ZM2.12305 33.084L2.8571 33.7632L2.84899 33.7718L2.12305 33.084ZM2 33.3936L1 33.3936L1 33.3932L2 33.3936ZM2.125 36.6875L1.4035 35.9951L1.40486 35.9937L2.125 36.6875ZM17.1113 21.1328L17.8326 21.8255L17.8315 21.8267L17.1113 21.1328ZM17.4209 21L17.42 20L17.4209 20L17.4209 21ZM49.5791 21L49.5802 22L49.5791 22L49.5791 21ZM50.0127 20.5557L51.0127 20.5516L51.0127 20.5569L50.0127 20.5557ZM50 17.4444L49 17.4484L49 17.4431L50 17.4444ZM50.4336 17L50.4319 16L50.4336 16L50.4336 17ZM273.566 17L273.566 16L273.568 16L273.566 17ZM274 17.4443L275 17.4431L275 17.4484L274 17.4443ZM273.987 20.5557L272.987 20.5569L272.987 20.5516L273.987 20.5557ZM274.421 21L274.421 22L274.42 22L274.421 21ZM306.579 21L306.579 20L306.58 20L306.579 21ZM306.889 21.1328L306.169 21.8266L306.167 21.8255L306.889 21.1328ZM321.875 36.6875L322.595 35.9937L322.597 35.9951L321.875 36.6875ZM322 33.3936L323 33.3932L323 33.3936L322 33.3936ZM321.877 33.084L321.151 33.7718L321.143 33.7631L321.877 33.084ZM305.284 15.1514L306.01 14.4631L306.018 14.4722L305.284 15.1514ZM304.973 15.0166L304.973 14.0166L304.974 14.0166L304.973 15.0166ZM279.434 15.0166L279.434 16.0166L279.432 16.0166L279.434 15.0166ZM279 14.5723L278 14.5741L278 14.5723L279 14.5723ZM279 11.4443L280 11.4431L280 11.4443L279 11.4443ZM278.566 11L278.566 10L278.568 10L278.566 11ZM45.4336 11L45.4353 12C45.7695 11.9995 45.9997 11.7288 46 11.4456L45 11.4444L44 11.4431C44.0009 10.6695 44.619 10.0014 45.4319 10L45.4336 11ZM45 11.4444L46 11.4444L46 14.5723L45 14.5723L44 14.5723L44 11.4444L45 11.4444ZM45 14.5723L46 14.5742C45.9985 15.3465 45.3816 16.0152 44.5681 16.0166L44.5664 15.0166L44.5647 14.0166C44.2298 14.0172 44.0005 14.2882 44 14.5704L45 14.5723ZM44.5664 15.0166L44.5664 16.0166L19.0273 16.0166L19.0273 15.0166L19.0273 14.0166L44.5664 14.0166L44.5664 15.0166ZM19.0273 15.0166L19.0284 16.0166C19.1874 16.0165 19.3359 15.9507 19.4413 15.8396L18.7158 15.1514L17.9903 14.4632C18.2591 14.1799 18.6329 14.017 19.0263 14.0166L19.0273 15.0166ZM18.7158 15.1514L19.4498 15.8305L2.85704 33.7632L2.12305 33.084L1.38905 32.4049L17.9818 14.4722L18.7158 15.1514ZM2.12305 33.084L2.84899 33.7718C2.94673 33.6686 2.99995 33.5334 3 33.394L2 33.3936L1 33.3932C1.00014 33.0225 1.14215 32.6654 1.39711 32.3963L2.12305 33.084ZM2 33.3936L3 33.3936L3 37L2 37L1 37L1 33.3936L2 33.3936ZM2 37L1 37C1 36.6277 1.14325 36.2663 1.4035 35.9951L2.125 36.6875L2.84651 37.3799C2.94705 37.2752 3 37.139 3 37L2 37ZM2.125 36.6875L1.40486 35.9937L16.3912 20.439L17.1113 21.1328L17.8315 21.8267L2.84514 37.3814L2.125 36.6875ZM17.1113 21.1328L16.3901 20.4401C16.6582 20.161 17.0293 20.0004 17.42 20L17.4209 21L17.4218 22C17.5799 21.9999 17.7275 21.9349 17.8326 21.8255L17.1113 21.1328ZM17.4209 21L17.4209 20L49.5791 20L49.5791 21L49.5791 22L17.4209 22L17.4209 21ZM49.5791 21L49.578 20C49.2428 20.0004 49.013 20.2719 49.0127 20.5545L50.0127 20.5557L51.0127 20.5569C51.0117 21.33 50.3943 21.9991 49.5802 22L49.5791 21ZM50.0127 20.5557L49.0127 20.5598L49 17.4484L50 17.4444L51 17.4403L51.0127 20.5516L50.0127 20.5557ZM50 17.4444L49 17.4431C49.0009 16.6695 49.619 16.0014 50.4319 16L50.4336 17L50.4353 18C50.7695 17.9995 50.9997 17.7288 51 17.4456L50 17.4444ZM50.4336 17L50.4336 16L273.566 16L273.566 17L273.566 18L50.4336 18L50.4336 17ZM273.566 17L273.568 16C274.381 16.0014 274.999 16.6695 275 17.4431L274 17.4443L273 17.4456C273 17.7288 273.23 17.9994 273.565 18L273.566 17ZM274 17.4443L275 17.4484L274.987 20.5597L273.987 20.5557L272.987 20.5516L273 17.4403L274 17.4443ZM273.987 20.5557L274.987 20.5544C274.987 20.2719 274.757 20.0004 274.422 20L274.421 21L274.42 22C273.606 21.9991 272.988 21.33 272.987 20.5569L273.987 20.5557ZM274.421 21L274.421 20L306.579 20L306.579 21L306.579 22L274.421 22L274.421 21ZM306.579 21L306.58 20C306.971 20.0003 307.342 20.1609 307.61 20.4401L306.889 21.1328L306.167 21.8255C306.272 21.9349 306.42 21.9999 306.578 22L306.579 21ZM306.889 21.1328L307.609 20.439L322.595 35.9937L321.875 36.6875L321.155 37.3813L306.169 21.8266L306.889 21.1328ZM321.875 36.6875L322.597 35.9951C322.857 36.2663 323 36.6277 323 37L322 37L321 37C321 37.139 321.053 37.2751 321.153 37.3799L321.875 36.6875ZM322 37L321 37L321 33.3936L322 33.3936L323 33.3936L323 37L322 37ZM322 33.3936L321 33.3939C321 33.5334 321.053 33.6686 321.151 33.7717L321.877 33.084L322.603 32.3962C322.858 32.6653 323 33.0225 323 33.3932L322 33.3936ZM321.877 33.084L321.143 33.7631L304.55 15.8305L305.284 15.1514L306.018 14.4722L322.611 32.4048L321.877 33.084ZM305.284 15.1514L304.559 15.8396C304.664 15.9507 304.813 16.0164 304.972 16.0166L304.973 15.0166L304.974 14.0166C305.367 14.017 305.741 14.1798 306.01 14.4632L305.284 15.1514ZM304.973 15.0166L304.973 16.0166L279.434 16.0166L279.434 15.0166L279.434 14.0166L304.973 14.0166L304.973 15.0166ZM279.434 15.0166L279.432 16.0166C278.618 16.0152 278.001 15.3465 278 14.5741L279 14.5723L280 14.5704C279.999 14.2882 279.77 14.0172 279.435 14.0166L279.434 15.0166ZM279 14.5723L278 14.5723L278 11.4443L279 11.4443L280 11.4443L280 14.5723L279 14.5723ZM279 11.4443L278 11.4456C278 11.7288 278.23 11.9994 278.565 12L278.566 11L278.568 10C279.381 10.0014 279.999 10.6695 280 11.4431L279 11.4443ZM278.566 11L278.566 12L45.4336 12L45.4336 11L45.4336 10L278.566 10L278.566 11Z" fill="#6ACFF6" mask="url(#path-6-inside-3_254_6669)"/>
    </g>
    <defs>
        <filter id="filter0_f_254_6669" x="0" y="9" width="324" height="30" filterUnits="userSpaceOnUse" color-interpolation-filters="sRGB">
            <feFlood flood-opacity="0" result="BackgroundImageFix"/>
            <feBlend mode="normal" in="SourceGraphic" in2="BackgroundImageFix" result="shape"/>
            <feGaussianBlur stdDeviation="1" result="effect1_foregroundBlur_254_6669"/>
        </filter>
        <filter id="filter1_f_254_6669" x="1.8" y="10.8" width="320.4" height="26.4" filterUnits="userSpaceOnUse" color-interpolation-filters="sRGB">
            <feFlood flood-opacity="0" result="BackgroundImageFix"/>
            <feBlend mode="normal" in="SourceGraphic" in2="BackgroundImageFix" result="shape"/>
            <feGaussianBlur stdDeviation="0.1" result="effect1_foregroundBlur_254_6669"/>
        </filter>
        <radialGradient id="paint0_radial_254_6669" cx="0" cy="0" r="1" gradientUnits="userSpaceOnUse" gradientTransform="translate(162 13.5) rotate(90) scale(13.5 147)">
            <stop stop-color="#6ACFF6"/>
            <stop offset="0.9" stop-color="#0D142F" stop-opacity="0"/>
        </radialGradient>
    </defs>
</svg>
