<svg width="290" height="1" viewBox="0 0 290 1" fill="none" xmlns="http://www.w3.org/2000/svg" preserveAspectRatio="none">
<path d="M0.25 0.3125C0.200379 0.312715 0.152791 0.332493 0.117704 0.367637C0.0826167 0.402779 0.062905 0.450382 0.062905 0.5C0.062905 0.549618 0.0826167 0.597221 0.117704 0.632363C0.152791 0.667507 0.200379 0.687285 0.25 0.6875C5.075 0.708333 9.9 0.728125 14.725 0.746875C58.15 0.915625 101.575 1 145 1C188.425 1 231.85 0.915625 275.275 0.746875C280.1 0.728125 284.925 0.708333 289.75 0.6875C289.8 0.687285 289.847 0.667507 289.882 0.632363C289.917 0.597221 289.937 0.549618 289.937 0.5C289.937 0.450382 289.917 0.402779 289.882 0.367637C289.847 0.332493 289.8 0.312715 289.75 0.3125C284.925 0.291667 280.1 0.271875 275.275 0.253125C231.85 0.084375 188.425 0 145 0C101.575 0 58.15 0.084375 14.725 0.253125C9.9 0.271875 5.075 0.291667 0.25 0.3125Z" fill="#019DE9"/>
</svg>
