<svg width="308" height="271" viewBox="0 0 308 271" fill="none" xmlns="http://www.w3.org/2000/svg" preserveAspectRatio="none">
<path d="M5 8H303V245.055L289 261H13L5 251.433V8Z" fill="url(#paint0_linear_150_605)"/>
<mask id="path-2-inside-1_150_605" fill="white">
<path d="M308 8.29688V258.74L300.393 267.321H21.7354L18.4756 271H7.06445L0 263.03V7.2373L5 3H303L308 8.29688ZM5 11.6631V243.458H4.99023V250.874L13 260.407H289L303 244.518L303.013 243.458H303V10.415L301 8.29688H9L5 11.6631Z"/>
</mask>
<path d="M308 8.29688V258.74L300.393 267.321H21.7354L18.4756 271H7.06445L0 263.03V7.2373L5 3H303L308 8.29688ZM5 11.6631V243.458H4.99023V250.874L13 260.407H289L303 244.518L303.013 243.458H303V10.415L301 8.29688H9L5 11.6631Z" fill="url(#paint1_radial_150_605)"/>
<path d="M308.375 8.29688C308.125 8.29688 307.875 8.29688 307.625 8.29688C307.542 27.2165 307.467 46.1361 307.4 65.0557C307.173 129.617 307.042 194.179 307.009 258.74L307.258 258.083C304.721 260.942 302.184 263.801 299.647 266.66L300.393 266.325C293.098 266.323 285.804 266.321 278.51 266.321C192.918 266.321 107.327 266.34 21.7354 266.378C21.5284 266.378 21.1668 266.541 21.0295 266.696C19.9434 267.923 18.8574 269.149 17.7713 270.376L18.4756 270.059C14.6719 270.061 10.8682 270.063 7.06445 270.064L7.76466 270.379C5.40859 267.724 3.0525 265.068 0.696378 262.413L0.930577 263.03C0.888855 177.766 0.828327 92.5016 0.748994 7.2373L0.484242 7.80871C2.14959 6.39472 3.81494 4.98073 5.48028 3.56672L5 3.74286C87.8417 3.66484 170.683 3.56908 253.525 3.45556C270.017 3.43296 286.508 3.40965 303 3.38565L302.72 3.26472C304.389 5.02792 306.058 6.79111 307.727 8.55429C307.909 8.38268 308.091 8.21107 308.273 8.03946C306.609 6.27139 304.945 4.50333 303.28 2.73528C303.225 2.67701 303.08 2.61423 303 2.61435C286.508 2.59035 270.017 2.56704 253.525 2.54444C170.683 2.43092 87.8417 2.33516 5 2.25714C4.87343 2.25726 4.61621 2.35136 4.51972 2.43328C2.85173 3.84414 1.18374 5.25502 -0.484242 6.6659C-0.614192 6.77624 -0.749152 7.06683 -0.748994 7.2373C-0.828327 92.5016 -0.888855 177.766 -0.930577 263.03C-0.930496 263.196 -0.806069 263.524 -0.696378 263.648C1.65714 266.305 4.01068 268.963 6.36425 271.621C6.50048 271.774 6.85919 271.936 7.06445 271.936C10.8682 271.937 14.6719 271.939 18.4756 271.941C18.6821 271.941 19.043 271.779 19.1798 271.624C20.267 270.398 21.3541 269.173 22.4412 267.947L21.7354 268.264C107.327 268.302 192.918 268.321 278.51 268.321C285.804 268.321 293.098 268.32 300.393 268.318C300.611 268.317 300.993 268.146 301.138 267.982C303.673 265.121 306.207 262.26 308.742 259.398C308.859 259.266 308.991 258.916 308.991 258.74C308.958 194.179 308.827 129.617 308.6 65.0557C308.533 46.1361 308.458 27.2165 308.375 8.29688ZM307.625 8.29688H308.375C308.375 8.22636 308.321 8.09067 308.273 8.03946L307.727 8.55429L307.625 8.29688ZM6 11.6631C5.33333 11.6631 4.66667 11.6631 4 11.6631C4 29.7149 4 47.7666 4 65.8184C4 125.032 4 184.245 4 243.458L5 242.458C4.99674 242.458 4.99349 242.458 4.99023 242.458C4.42455 242.458 3.99023 242.892 3.99023 243.458C3.99023 245.93 3.99023 248.402 3.99023 250.874C3.99023 251.043 4.11588 251.388 4.2246 251.517C6.89453 254.695 9.56445 257.873 12.2344 261.051C12.3818 261.226 12.7708 261.407 13 261.407C105 261.407 197 261.407 289 261.407C289.22 261.407 289.605 261.234 289.75 261.068C294.417 255.772 299.084 250.475 303.75 245.179C303.864 245.049 303.998 244.702 304 244.53C304.004 244.176 304.008 243.823 304.013 243.47C304.019 242.898 303.585 242.458 303.013 242.458C303.008 242.458 303.004 242.458 303 242.458L304 243.458C304 165.777 304 88.096 304 10.415C304 10.227 303.856 9.86526 303.727 9.7285C303.06 9.02245 302.394 8.31639 301.727 7.61034C301.584 7.45911 301.208 7.29688 301 7.29688C219.976 7.29688 138.952 7.29688 57.9274 7.29688C41.6182 7.29688 25.3091 7.29688 9 7.29688C8.83072 7.29688 8.48563 7.42276 8.35611 7.53176C7.02278 8.65383 5.68944 9.7759 4.35611 10.898C4.78537 11.408 5.21463 11.9181 5.64389 12.4282C6.97722 11.3061 8.31056 10.1841 9.64389 9.06199L9 9.29688C25.3091 9.29688 41.6182 9.29688 57.9274 9.29688C138.952 9.29688 219.976 9.29688 301 9.29688L300.273 8.98341C300.94 9.68946 301.606 10.3955 302.273 11.1016L302 10.415C302 88.096 302 165.777 302 243.458C302 244.024 302.434 244.458 303 244.458C303.004 244.458 303.008 244.458 303.013 244.458L302.013 243.446C302.009 243.799 302.004 244.152 302 244.506L302.25 243.856C297.583 249.153 292.916 254.45 288.25 259.746L289 259.407C197 259.407 105 259.407 13 259.407L13.7656 259.764C11.0957 256.586 8.42579 253.408 5.75587 250.231L5.99023 250.874C5.99023 248.402 5.99023 245.93 5.99023 243.458L4.99023 244.458C4.99349 244.458 4.99674 244.458 5 244.458C5.56569 244.458 6 244.024 6 243.458C6 184.245 6 125.032 6 65.8184C6 47.7666 6 29.7149 6 11.6631ZM4 11.6631H6L5.64389 12.4282L4.35611 10.898C4.18098 11.0453 4 11.4342 4 11.6631Z" fill="url(#paint2_linear_150_605)" mask="url(#path-2-inside-1_150_605)"/>
<defs>
<linearGradient id="paint0_linear_150_605" x1="224" y1="248.549" x2="224" y2="-13.4153" gradientUnits="userSpaceOnUse">
<stop stop-color="#101E57"/>
<stop offset="1" stop-color="#2342BD"/>
</linearGradient>
<radialGradient id="paint1_radial_150_605" cx="0" cy="0" r="1" gradientTransform="matrix(-4.65099 -253.095 354.863 -8.19063 158.651 148.217)" gradientUnits="userSpaceOnUse">
<stop stop-color="#29B3D8"/>
<stop offset="0.545428" stop-color="#005DAC"/>
<stop offset="0.968301" stop-color="#172169"/>
</radialGradient>
<linearGradient id="paint2_linear_150_605" x1="144.538" y1="286.325" x2="144.538" y2="-13.9486" gradientUnits="userSpaceOnUse">
<stop stop-color="#79DDFD"/>
</linearGradient>
</defs>
</svg>
