<svg width="34" height="39" viewBox="0 0 34 33" fill="none" xmlns="http://www.w3.org/2000/svg"><path d="M14.485 10.394c-.114-.012-.589-.8-.124-.91.263.026.678.81.123.91m5.971 1.492c-.49.153-.27-.478-.254-.707.017-.24-.068-.342.172-.481.632-.022.29 1.084.082 1.188m-5.221 5.789c-.197-.832-1-3.693-.713-4.138.076-.117.293-.148.406-.069.194.138.196 1.075.228 1.31.123.9.337 1.826.635 2.688.11.322.334.615-.058.807-.302-.089-.381-.343-.498-.599m4.4-.922c-.759.078-.203-.694-.1-.994.171-.496.235-1.826.495-2.03.481.022.422.23.38.593-.08.69-.193 2.019-.775 2.43" fill="#fff"/><g filter="url(#a)" fill="#00AEEF"><path d="M10.276 4.636c.284.104.574.174.864.246.124.736.297 2.095.331 2.857-.34.119-.63.316-.932.534-.132-.88-.266-2.73-.263-3.637M9.249 7.022c.05.32.068.647.094.97-.73-.385-2.188-.484-2.97-.232-1.15.37-.667 1.844-.482 2.696.681 3.133 1.179 5.036 4.496 6.23.205.074.423.138.615.243.224.669.52 1.294.768 1.95-.371.004-1.864-.473-2.05-.663.225-.613-.352-.566-.767-.707-3.102-1.059-3.42-3.416-3.999-6.348-.201-1.021-.653-2.616-.066-3.56.11-.01.394-.279.515-.351.814-.49 1.866-.568 2.786-.434.259.038.845.236 1.06.206m15.321.287c1.17-.217 2.192-1.044 3.534-.131.867.59.679.975.991 1.29.094 1.02-.618 4.426-.976 5.447-.951 2.712-2.998 3.703-5.59 4.055.123-.316.238-.628.326-.956 4.006-.933 4.699-2.894 5.348-6.757.17-1.009.398-2.133-.717-2.66-.996-.473-2.058.11-2.99.461.03-.249.05-.5.074-.75M10.575 9.501c.377-.266.823-.47 1.27-.623.211.665.361 1.612.523 2.313a5.8 5.8 0 0 0-1.427.718zm.59-5.47c-.198-.052-1.352-.164-1.168-.538.167-.341.83-.545 1.168-.674.019.404-.005.808 0 1.212m.007 9.033c.43-.335.839-.638 1.344-.852.433 1.396 1.59 4.67 2.855 5.527.113.26.19.517.483.607 1.18.94 2.673 1.62 4.209 1.449.223-.025.45-.097.673-.101l-.022.033c-1.28 1.931-4.167 2.458-6.034 1.187-1.979-1.348-3.077-5.587-3.508-7.85m4.733 9.451c.107.014.23 0 .338 0l-.002.039c-.019.338.029.678.005 1.015-.08 1.164-.866 2.234-1.775 2.886-.311-.073-.621-.25-.908-.392 1.386-1.23 1.817-1.5 2.342-3.548"/><path d="M22.23 27.993c-1.276 1.388-3.751 1.504-5.437 1.491-1.567-.012-3.783.002-5.023-1.274.247-.656.653-1.31 1.155-1.755 1.446 1.495 5.794 1.307 7.39.564.302-.14.562-.344.818-.564.41.44.854.964 1.097 1.538"/></g><g filter="url(#b)"><path d="M9.378 6.976a1.6 1.6 0 0 0-.083-.39c-1.272-.85-3.578-.536-4.317.971-.593.948-.137 2.549.066 3.574.584 2.944.906 5.31 4.035 6.373.42.142 1.001.094.774.71-.312.237-.81-.023-1.129-.143-3.005-1.134-3.62-3.132-4.239-6.04-.446-2.091-1.158-4.43.948-5.91 1.145-.804 2.618-.753 3.862-.237-.003-.676-.264-2.21-.094-2.773.575-1.909 6.003-2.104 7.61-2.11 1.988-.009 6.23.113 7.687 1.583.496.5.405.895.36 1.525-.043.573-.078 1.144-.163 1.712 1.376-.227 2.733-.68 4.026.276 1.36 1.006 1.372 2.36 1.207 3.858-.575 5.215-1.725 7.953-7.15 8.97-.212.04-.447.063-.648.14l-.021.025c-.228.274-.366.626-.55.932-.809 1.348-1.265 1.597-2.527 2.249.435 2.027.92 2.216 2.476 3.423.948.735 1.662 1.836 1.895 3.033.33 1.698-.583 1.96-2.02 2.074a63 63 0 0 1-8.32.11c-1.122-.06-2.16.077-2.422-1.4-.165-.932.259-1.984.78-2.736 1.379-1.99 3.027-1.633 3.663-4.504-1.82-.647-2.314-1.901-3.162-3.391-.25-.659-.55-1.287-.775-1.958-.194-.105-.414-.17-.62-.244-3.348-1.199-3.85-3.11-4.538-6.255-.187-.855-.674-2.334.488-2.706.788-.253 2.26-.154 2.996.232-.026-.324-.045-.651-.095-.973m1.843-4.245c-.316.127-.933.327-1.089.662-.17.367.904.477 1.089.529.507.124 1.037.183 1.554.252 2.807.373 5.792.368 8.59-.116.275-.048.585-.139.864-.131.479.013.628.703.187.909-.301.141-.946.205-1.283.255-2.748.407-7.19.471-9.912-.172-.35-.073-.699-.143-1.04-.248-.004.913.158 2.772.317 3.657.363-.219.711-.417 1.121-.536 1.663-.591 3.532.065 5.031.816.787.394 1.547.915 2.463.859 1.002-.061 1.604-.939 2.32-1.533.71-.592 1.373-.83 2.264-.958.006-.367.054-.741.081-1.108l.101-1.566c.042-.6.24-.893-.357-1.26-2.223-1.368-8.52-1.223-11.38-.563-.31.071-.612.177-.921.252m17.966 5.672c-.186-1.604-1.379-2.454-2.961-2.236-.291.04-1.343.289-1.556.507-.083.085-.066.449-.072.573-.023.25-.045.5-.075.748.945-.35 2.023-.932 3.033-.461 1.13.526.898 1.646.726 2.653-.658 3.85-1.36 5.805-5.423 6.735a9 9 0 0 1-.33.953c2.628-.351 4.704-1.34 5.669-4.042.363-1.018 1.084-4.413.99-5.43m-17.393.34c-.42.16-.84.377-1.194.659l.344 2.546a5.3 5.3 0 0 1 1.342-.76c3.964-1.2 6.41 3.014 9.397.794.396-.294 1.466-1.35 1.607-1.792.153-.484.215-1.679.3-2.24-.878.19-1.458.65-2.085 1.255-1.862 1.798-2.961 1.46-5.166.346-1.416-.715-2.954-1.351-4.545-.808m.688 3.438c-.502.214-.909.518-1.335.854.428 2.272 1.52 6.527 3.485 7.879 1.856 1.276 4.724.747 5.997-1.191l.021-.033c1.4-1.864 2.222-5.848 2.504-8.159-3.655 5.07-6.965-.83-10.672.65m3.87 10.347c-.108 0-.23.014-.336 0-.523 2.003-.952 2.267-2.33 3.47.284.14.593.313.902.383 1.498.348 4.266.38 5.638-.383-1.35-.946-1.792-1.9-2.134-3.47-.568.065-1.179.136-1.74 0m5.778 5.473c-.24-.524-.679-1-1.084-1.401-.253.2-.51.386-.807.514-1.578.676-5.875.847-7.304-.514-.495.406-.897 1-1.14 1.598-.158.42-.13 1.15-.574 1.364.364.61.477.567 1.113.539 2.307-.104 4.62-.062 6.928-.148.754-.029 2.628.073 3.199-.39.023-.556-.106-1.06-.331-1.562m4.382-19.736c-.697.037-1.377.303-2.073.276-.157 1.235-.317 2.596-.53 3.813-.212 1.212-.495 2.405-.755 3.607.275-.078.537-.184.8-.296 1.535-.727 2.061-1.041 2.672-2.743.419-1.168.786-2.932.88-4.179-.195-.402-.582-.508-.994-.478m-19.286.063c-1.203-.029-.941.644-.757 1.488.633 2.898.838 4.787 3.712 6.07.229.096.461.17.7.237-.49-1.904-.847-3.587-1.113-5.561-.084-.62-.188-1.26-.2-1.884-.75-.196-1.56-.462-2.342-.35" fill="#fff"/></g><defs><filter id="a" x="2.598" y=".819" width="28.506" height="30.666" filterUnits="userSpaceOnUse" color-interpolation-filters="sRGB"><feFlood flood-opacity="0" result="BackgroundImageFix"/><feBlend in="SourceGraphic" in2="BackgroundImageFix" result="shape"/><feGaussianBlur stdDeviation="1" result="effect1_foregroundBlur_215_881"/></filter><filter id="b" x="0" y="1" width="34" height="38" filterUnits="userSpaceOnUse" color-interpolation-filters="sRGB"><feFlood flood-opacity="0" result="BackgroundImageFix"/><feColorMatrix in="SourceAlpha" values="0 0 0 0 0 0 0 0 0 0 0 0 0 0 0 0 0 0 127 0" result="hardAlpha"/><feOffset dy="4"/><feGaussianBlur stdDeviation="2"/><feComposite in2="hardAlpha" operator="out"/><feColorMatrix values="0 0 0 0 0 0 0 0 0 0 0 0 0 0 0 0 0 0 0.25 0"/><feBlend in2="BackgroundImageFix" result="effect1_dropShadow_215_881"/><feBlend in="SourceGraphic" in2="effect1_dropShadow_215_881" result="shape"/></filter></defs></svg>