<svg width="30" height="31" viewBox="0 0 30 31" fill="none" xmlns="http://www.w3.org/2000/svg">
<path d="M5.75688 3.32099C7.75683 0.81886 11.3314 0.136296 14.4539 8.73174e-05C17.5937 -0.00854659 22.3276 0.619885 24.2827 3.32099C24.6854 2.88896 25.0737 2.45546 25.3248 1.92228C25.5201 1.50763 25.5792 0.944269 26.1407 0.832613C27.2283 0.616378 27.523 2.53571 27.675 3.23012C28.5448 7.20221 27.4549 10.2376 26.8943 14.0293C26.5185 16.5718 26.07 19.167 25.24 21.6094C24.1453 24.8303 22.3173 26.8187 19.1982 28.5377C17.9227 29.2406 17.0051 29.7011 15.5016 29.9992C12.0203 30.056 7.89234 27.1442 6.10715 24.4706C4.71685 22.3885 4.05404 19.4932 3.60703 17.1019C3.31853 15.5586 3.20043 14.1551 2.97542 12.6321C2.90495 12.1555 2.72198 11.6741 2.60956 11.2029C1.92125 8.32026 1.68496 4.85814 2.59982 2.03055C2.69682 1.73086 2.79063 1.33723 3.01134 1.09939C3.30165 0.786481 3.86314 0.744595 4.16508 1.06849C4.40388 1.3246 4.48753 1.70786 4.65611 2.00761C4.93678 2.50665 5.33976 2.92419 5.75688 3.32099ZM26.6775 3.49902C26.5946 3.04938 26.4811 2.62205 26.3154 2.19313C25.2575 4.39879 23.0897 5.55008 20.6464 5.98194C20.1495 6.06976 19.6447 6.12335 19.1503 6.22178C16.8755 6.67488 15.7181 8.24931 15.5441 10.3689C15.5172 10.6964 15.6436 11.1877 15.3991 11.4527C15.1951 11.6739 14.8292 11.6731 14.609 11.4776C14.3567 11.2538 14.4608 10.675 14.4539 10.3689C14.2158 8.30734 13.2168 6.69043 10.9442 6.24475C10.1709 6.09306 9.37921 6.04112 8.60916 5.85832C6.35697 5.32382 4.76328 4.05088 3.59842 2.19313C3.42949 2.60624 3.3299 3.06304 3.2491 3.49902C2.75187 6.39726 3.21171 12.2753 5.00716 14.717C5.54048 15.4423 6.41029 16.0458 7.29535 16.3108C9.56571 16.9905 12.7385 14.4137 14.4319 16.9235C14.6103 17.188 14.6752 17.6519 15.0989 17.5687C15.4028 17.5091 15.4819 17.0572 15.6403 16.833C17.2492 14.5546 20.4007 16.7592 22.3985 16.3778C26.8897 15.5203 27.3598 6.70377 26.6775 3.49902ZM19.3644 27.2674C19.786 27.0515 20.299 26.6481 20.679 26.3599C23.8477 23.9568 24.6108 20.8306 25.2989 17.2357C25.4159 16.6245 25.478 16.0018 25.6414 15.3992C24.1995 17.0173 22.6419 17.7214 20.3543 17.2245C18.4924 16.8202 17.3397 16.0138 16.2354 17.8854C15.8122 18.6025 14.755 18.7596 14.1024 18.2367C13.8334 18.0212 13.726 17.7305 13.5557 17.4493C12.7503 16.1197 10.6897 17.0181 9.54702 17.3162C7.4536 17.8624 5.69554 16.9145 4.35176 15.4785C4.54412 16.2397 4.63871 17.0295 4.80506 17.7976C5.72225 22.0318 6.73015 25.0139 10.7485 27.3611L10.8017 27.3919C11.5882 27.9639 13.2524 28.7025 14.2293 28.922C16.0116 29.3225 17.9181 28.1177 19.3644 27.2674ZM14.8341 0.965438C12.1846 0.963842 8.19092 1.71174 6.53331 3.90915C7.25555 4.53805 8.71589 4.92587 9.63756 5.07551C11.7704 5.42177 13.3815 5.57626 14.61 7.59218C14.7259 7.78239 14.9021 8.43368 15.0469 8.20059C16.4257 5.80795 17.3962 5.5542 20.1858 5.083C21.3862 4.88028 22.4381 4.49451 23.4879 3.90915C21.7687 1.71911 17.6543 0.824374 14.8341 0.965438Z" fill="white"/>
<path d="M17.7189 9.65401C18.0356 8.92428 18.5252 8.2111 19.4219 8.13283C19.6951 8.05974 20.5474 8.19834 20.482 8.52337C20.3022 8.69119 18.9595 9.06807 18.5209 9.2526C18.2444 9.3745 17.9773 9.49952 17.7189 9.65401Z" fill="white"/>
<path d="M11.7314 9.38666C11.3443 9.17234 10.912 9.00839 10.4823 8.89118C10.3468 8.85423 9.4096 8.70196 9.60894 8.43035C9.74126 8.24994 10.0754 8.16417 10.2915 8.13257C11.2945 8.05117 11.8317 8.86929 12.195 9.65375C12.0437 9.55827 11.8896 9.47136 11.7314 9.38666Z" fill="white"/>
<path d="M12.9015 14.346C10.5731 14.5432 8.22017 15.2949 6.45626 13.3924C5.45697 12.3146 4.6988 9.76652 4.79374 8.26904C6.08859 9.34725 6.43455 9.55722 8.23757 9.51746C11.8211 9.43845 12.7978 11.0591 13.1719 14.346H12.9015ZM6.06757 10.2638C6.33057 11.4041 6.8048 12.6389 7.87912 13.2993C8.94629 13.9553 10.5777 13.6142 11.811 13.4503C11.8864 13.4502 11.9653 13.4453 12.0403 13.4503C11.8622 12.5453 11.466 11.4584 10.6416 10.9143C9.51399 10.1701 7.68728 10.7204 6.06757 10.2638Z" fill="white"/>
<path d="M16.8314 14.346C16.8563 12.08 18.1143 9.63932 20.7785 9.51207C22.697 9.42038 23.2181 9.84591 25.0514 8.69922L25.0837 8.70877C25.1975 10.3601 24.3685 12.8531 23.0287 13.9119C21.8287 14.8602 20.6535 14.7022 19.2203 14.5505L17.1632 14.346C17.0527 14.3426 16.942 14.3452 16.8314 14.346ZM23.8412 10.369C23.4038 10.4221 22.9952 10.5269 22.5487 10.5351C21.0891 10.5616 19.8469 10.177 18.7794 11.4854C18.3653 11.993 18.0386 12.8139 17.975 13.4503C18.0533 13.4513 18.1316 13.4531 18.2098 13.4503L19.7264 13.6227C22.0214 13.8732 23.1612 13.1023 23.7516 10.9204C23.792 10.7711 23.9072 10.5287 23.8562 10.3774L23.8412 10.369Z" fill="white"/>
<path d="M9.44772 19.1204C9.78214 18.8912 10.2583 18.7038 10.6462 18.5884L10.6501 18.5905L10.6515 18.6181C10.4175 18.8208 10.1739 19.5306 9.9826 19.8279C9.67187 19.9304 9.36502 20.0313 9.06825 20.168L9.04956 20.1389C9.09737 19.8283 9.3024 19.4053 9.44772 19.1204Z" fill="white"/>
<path d="M19.9687 19.8279C19.7658 19.4142 19.5786 18.9979 19.3644 18.5884C20.3351 18.9001 20.6304 19.2438 20.9201 20.168C20.6062 20.0597 20.2971 19.8904 19.9687 19.8279Z" fill="white"/>
<path d="M8.52618 22.349C8.406 22.2732 8.64902 21.4357 8.70501 21.3016C8.80692 21.0572 9.38306 20.8508 9.63228 20.7471C9.67208 20.8459 9.44483 21.5967 9.44767 21.8872C9.11817 22.0131 8.82467 22.1667 8.52618 22.349Z" fill="white"/>
<path d="M20.6174 21.8872C20.4803 21.5234 20.3971 21.1204 20.2833 20.7471C20.5885 20.8365 20.9095 20.9839 21.1916 21.1267C21.3334 21.5221 21.4122 21.9398 21.4956 22.349C21.2037 22.2538 20.8823 22.0408 20.6174 21.8872Z" fill="white"/>
<path d="M18.2098 22.2323C18.0042 22.3839 17.8372 22.5768 17.655 22.7525C16.5259 23.8409 14.9395 24.2555 13.4593 23.5314C12.7216 23.1705 11.5798 22.1092 11.3086 21.311C11.5229 21.3767 11.7501 21.5245 11.9523 21.6242C14.4566 22.8601 16.2598 22.5902 18.7532 21.311C18.5739 21.6138 18.3475 21.9104 18.2098 22.2323Z" fill="white"/>
<path d="M8.34083 24.7296C8.30164 24.6621 8.34057 23.7391 8.36547 23.6412C8.45618 23.2843 8.91749 23.0084 9.22615 22.8228C9.22925 22.8257 9.19901 23.8145 9.22615 23.9701C8.88622 24.1875 8.6252 24.4506 8.34083 24.7296Z" fill="white"/>
<path d="M20.7897 24.0395C20.7916 23.634 20.7749 23.228 20.7897 22.8228C21.0504 22.9763 21.314 23.1267 21.5682 23.2898C21.6229 23.7368 21.6741 24.1893 21.7669 24.6307C21.4853 24.5262 21.0575 24.2089 20.7897 24.0395Z" fill="white"/>
<g filter="url(#filter0_f_137_21153)">
<path d="M15.5441 10.3689C15.6662 10.2068 15.7309 9.98976 15.8091 9.80573C16.3125 8.62076 17.6409 7.49325 18.9277 7.20806C19.4516 7.09201 19.9841 7.04032 20.5112 6.94584C22.5759 6.57571 24.6631 5.79199 26.0704 4.23895C26.2854 4.00175 26.4142 3.69598 26.6775 3.49902C27.3598 6.70377 26.8897 15.5203 22.3985 16.3778C20.4007 16.7592 17.2492 14.5546 15.6403 16.833C15.4819 17.0572 15.4028 17.5091 15.0989 17.5687C14.6752 17.6519 14.6103 17.188 14.4319 16.9236C12.7385 14.4137 9.56571 16.9905 7.29535 16.3108C6.41029 16.0458 5.54048 15.4423 5.00715 14.717C3.21171 12.2753 2.75187 6.39727 3.2491 3.49902L3.26684 3.51516C3.41665 3.65359 3.54372 3.81524 3.68232 3.96397C5.33227 5.73429 7.15295 6.67143 9.65806 6.98839C11.7929 7.25852 12.9742 7.74766 14.0848 9.64276C14.1737 9.79445 14.3371 10.2845 14.4539 10.3689C14.4608 10.675 14.3567 11.2538 14.609 11.4776C14.8292 11.6731 15.1951 11.6739 15.3991 11.4528C15.6436 11.1877 15.5172 10.6964 15.5441 10.3689ZM19.422 8.13269C18.5252 8.21096 18.0356 8.92414 17.7189 9.65387C17.9773 9.49938 18.2444 9.37436 18.521 9.25246C18.9595 9.06793 20.3022 8.69105 20.482 8.52323C20.5474 8.19821 19.6951 8.0596 19.422 8.13269ZM10.2915 8.13269C10.0754 8.1643 9.74128 8.25006 9.60896 8.43047C9.40962 8.70208 10.3468 8.85435 10.4823 8.8913C10.912 9.00851 11.3444 9.17246 11.7314 9.38679C11.8896 9.47148 12.0437 9.5584 12.195 9.65387C11.8317 8.86941 11.2946 8.05129 10.2915 8.13269ZM4.79377 8.26891C4.69884 9.76638 5.45701 12.3145 6.45629 13.3923C8.22021 15.2948 10.5731 14.543 12.9015 14.3459H13.1719C12.7978 11.0589 11.8212 9.43831 8.23761 9.51732C6.43458 9.55708 6.08863 9.34712 4.79377 8.26891ZM25.0514 8.69912C23.2181 9.84581 22.697 9.42029 20.7785 9.51197C18.1144 9.63922 16.8564 12.0799 16.8314 14.3459C16.942 14.3451 17.0527 14.3425 17.1632 14.3459L19.2204 14.5504C20.6535 14.7021 21.8288 14.8601 23.0288 13.9118C24.3685 12.853 25.1975 10.36 25.0837 8.70867L25.0514 8.69912Z" fill="#00AEEF"/>
<path d="M10.8017 27.3918C11.1428 27.1269 12.0418 26.8494 12.481 26.6999C15.8168 25.5648 16.3817 26.669 19.3644 27.2673C17.9181 28.1177 16.0116 29.3225 14.2293 28.922C13.2524 28.7025 11.5882 27.9638 10.8017 27.3918Z" fill="#00AEEF"/>
</g>
<defs>
<filter id="filter0_f_137_21153" x="1.06152" y="1.49902" width="27.869" height="29.502" filterUnits="userSpaceOnUse" color-interpolation-filters="sRGB">
<feFlood flood-opacity="0" result="BackgroundImageFix"/>
<feBlend mode="normal" in="SourceGraphic" in2="BackgroundImageFix" result="shape"/>
<feGaussianBlur stdDeviation="1" result="effect1_foregroundBlur_137_21153"/>
</filter>
</defs>
</svg>
