<svg width="31" height="30" viewBox="0 0 31 30" fill="none" xmlns="http://www.w3.org/2000/svg">
<g filter="url(#filter0_f_137_21159)">
<path d="M7.68044 15.5468C7.75559 15.4618 7.83012 15.3822 7.91757 15.3097C8.24588 15.2422 8.46878 15.2236 8.81035 15.338C9.06458 15.9048 9.1953 16.5323 9.35417 17.1217C9.79371 18.7522 10.3731 20.1418 11.6111 21.4196C11.045 21.3273 10.4553 21.2294 9.90198 21.0474C10.1342 20.1372 10.1488 20.2554 9.21205 19.8407C9.51332 18.8164 9.66937 18.9123 8.48104 18.471C8.96316 17.4063 9.0976 17.69 8.08465 16.9695C8.43953 16.1446 8.54054 16.1171 7.68044 15.5468Z" fill="#6ACFF6"/>
</g>
<g filter="url(#filter1_f_137_21159)">
<path d="M12.0871 20.9035C10.5328 19.6363 10.2365 16.5145 9.6551 14.7171C10.7103 14.7815 11.1081 14.6703 12.17 14.4044C15.4709 13.5776 18.6808 12.092 21.4314 10.046C22.0106 9.61512 23.1995 8.6426 23.8291 8.46969L23.8364 8.44374C23.8099 8.40882 23.7831 8.37751 23.7529 8.34598C24.6561 9.24317 25.1154 11.3049 25.3803 12.5293C25.6734 13.8845 25.6532 14.0022 26.5046 15.1845C26.0846 15.2148 25.5195 15.1897 25.0662 15.1978C24.7364 15.0908 22.4712 15.3638 22.0688 15.428C19.5983 15.8223 12.6718 17.8499 12.0871 20.9035Z" fill="#6ACFF6"/>
</g>
<path d="M10.7632 13.0007C12.0404 11.3358 15.4213 5.68116 14.1374 3.70197C13.6837 3.00263 13.3049 2.63346 13.9262 1.79489C14.1807 1.47856 14.6318 1.3801 15.0177 1.37598C17.7591 1.34679 24.4917 1.93139 24.1344 5.94048C24.1108 6.20514 24.0383 6.46598 24.0431 6.73242L24.0438 6.76502C24.4093 6.69005 26.0223 6.71223 26.37 6.81175C26.9476 6.97709 26.6028 7.56133 26.4935 7.92252L26.4875 7.94332C27.5918 8.35811 27.416 8.44263 27.0411 9.43886C28.2907 10.0265 27.9271 9.77406 27.5935 10.9553C28.7014 11.4188 28.4623 11.4277 28.0882 12.3968L28.0814 12.4146C29.1662 13.0008 28.7569 13.0126 28.4841 13.9257C28.7906 14.1499 29.4755 14.5181 29.0237 14.9745C28.829 15.1712 27.9401 15.7139 27.6595 15.8578C26.5689 16.4166 26.0679 16.0197 25.1182 16.1983C22.9058 16.6147 20.2019 17.4815 18.1422 18.4494C17.8132 18.8647 17.555 19.3689 17.2871 19.8268C16.3331 21.4571 15.6024 23.0297 14.761 24.6907C14.717 24.8185 14.6412 24.9482 14.5855 25.0723L14.1669 26.0121C13.5888 27.2877 13.3187 28.2465 11.7773 28.6886C9.36917 29.3794 6.03102 28.3364 3.91409 27.1584C2.95923 26.627 1.37958 25.7773 2.16731 24.4154C2.45282 23.9217 2.92308 23.8838 3.41752 23.7515C4.81133 23.3787 5.49444 21.8405 6.14795 20.6996L7.82867 17.7584C6.7862 17.2918 7.03113 17.2101 7.39847 16.2818C6.39206 15.5247 6.34126 15.6064 7.24325 14.6648C8.56121 13.2888 9.29843 13.5467 10.7416 13.009L10.7632 13.0007ZM7.94467 15.1962C7.84982 15.2762 7.7681 15.363 7.68545 15.4554C8.55404 16.0072 8.44729 16.041 8.03581 16.9191C9.0563 17.6199 8.93027 17.3308 8.37405 18.4655C9.59146 18.8663 9.4335 18.774 9.06794 19.8576C10.0243 20.2432 10.0149 20.1207 9.72715 21.0817C10.2952 21.2438 10.9053 21.3164 11.4913 21.3843C10.2639 20.1135 9.72918 18.6931 9.35239 17.0143C9.21619 16.4075 9.11127 15.7595 8.87449 15.181C8.80705 14.9914 8.73946 14.8035 8.65865 14.6191C8.39063 14.7861 8.16697 14.9725 7.94467 15.1962ZM9.61781 14.6488C10.2226 16.4587 10.5575 19.5936 12.132 20.8835C12.3178 21.0644 13.0174 20.3561 13.2645 20.185C16.2478 18.12 19.629 16.7446 23.1164 15.7862C23.7658 15.6077 24.4346 15.4979 25.0819 15.317C25.5364 15.3144 26.1036 15.3463 26.5245 15.3211C25.6562 14.1248 25.6751 14.0071 25.3646 12.6441C25.0842 11.4128 24.5986 9.33923 23.6818 8.42839C23.4851 8.22842 23.2658 8.07941 23.0003 7.98522C22.6604 8.22654 22.3321 8.48362 21.9906 8.72326C18.6675 11.0554 14.9706 12.8559 11.0227 13.8448C10.4892 13.9784 9.95438 14.0935 9.42725 14.253L9.61781 14.6488ZM24.0369 7.57893C24.2328 7.80316 24.4719 7.98441 24.6668 8.20879C25.3841 9.4142 25.8161 10.7574 26.1378 12.1167C26.5115 13.6959 26.4231 13.6892 27.3353 15.0745C27.5187 14.9155 27.7194 14.7907 27.9257 14.6641C27.1914 14.0919 27.6133 13.967 27.7999 13.2415C26.7876 12.7436 27.1233 12.6524 27.3634 11.8221C26.3294 11.3569 26.5747 11.3021 26.8928 10.3496C25.9419 9.85935 25.8351 9.87013 26.395 8.79273C25.609 8.62002 25.3104 8.43012 25.6473 7.65445C25.54 7.63899 25.4277 7.61987 25.3193 7.63691C24.8992 7.61295 24.4502 7.65542 24.0369 7.57893ZM14.5376 2.40634C14.3606 2.75588 14.6557 2.95142 14.8505 3.21161C15.8743 4.57904 15.0123 6.82198 14.4416 8.2065C13.8816 9.56494 12.9026 11.4706 12.0188 12.6907C13.9011 12.0405 16.0981 11.2578 17.8519 10.2876C19.2124 9.55868 20.4891 8.77167 21.7314 7.8559C22.1458 7.5504 22.5129 7.17736 23.0213 7.03705C23.2327 6.26687 23.485 5.45647 23.0615 4.71193C22.2799 3.33804 19.7673 2.70563 18.2308 2.47459C17.6681 2.39001 14.856 2.0599 14.5376 2.40634ZM7.97 19.2429C6.90328 20.9702 5.70548 24.1281 3.60723 24.6154C3.19348 24.7115 2.719 24.7195 2.88265 25.2993C3.0622 25.9353 5.71706 27.0922 6.38213 27.3321C7.9917 27.9126 11.8094 28.8513 12.8436 26.8382C13.4248 25.7066 13.9072 24.4249 14.481 23.255C14.6659 22.8781 14.8193 22.5069 15.0736 22.1688C15.2396 21.4909 16.3206 19.8428 16.6787 19.127C15.9054 19.4803 15.1582 19.9405 14.4516 20.4121C13.8732 22.093 13.1444 23.7555 11.6693 24.8651C11.5519 24.9534 11.0979 25.3502 10.9763 25.1283C10.9678 24.977 11.5314 24.3672 11.654 24.2075C12.3746 23.2687 12.9652 22.2713 13.3994 21.1694C12.3651 21.9542 12.1587 22.3133 10.847 22.134C10.4457 22.0792 10.0534 21.995 9.65605 21.9191C8.40101 21.6793 8.78131 21.5569 8.94645 20.7086C7.95713 20.3559 7.91268 20.341 8.39714 19.342C8.30423 19.3126 8.04877 19.2058 7.97 19.2429Z" fill="white"/>
<path d="M15.9429 9.64426L15.9201 9.63647C15.947 9.42796 16.0621 9.18268 16.132 8.98063C16.5945 7.64228 17.0567 6.59809 17.1256 5.1562C17.1572 4.49664 17.1621 3.85889 17.2384 3.20152L17.2638 3.20264C17.5305 3.51363 17.7397 4.14216 17.7916 4.54836C18.0276 6.39583 17.034 8.22103 15.9429 9.64426Z" fill="white"/>
<path d="M19.2067 9.07602L19.1803 9.0752C19.1579 9.02007 19.5515 6.30712 19.5661 5.95941C19.5877 5.4456 19.5099 4.78701 19.6299 4.29945L19.6703 4.30784C20.9359 5.45598 20.0578 7.83898 19.2067 9.07602Z" fill="white"/>
<path d="M10.3519 22.5237C9.68578 23.5631 9.02251 24.3773 7.85056 24.9152C7.55844 25.0493 6.35744 25.5067 6.17968 25.0704C6.38284 24.9325 6.64686 24.8516 6.87076 24.7476C7.55534 24.4298 8.13424 23.9484 8.69764 23.4545C8.90554 23.2723 10.6266 21.4083 10.3519 22.5237Z" fill="white"/>
<g filter="url(#filter2_f_137_21159)">
<path d="M24.6779 8.35288C24.8947 8.20963 25.1 8.03139 25.2735 7.83876C25.3764 7.82806 25.485 7.85222 25.5887 7.8726C25.3061 8.59838 25.6021 8.79585 26.3642 9.00216C25.8837 10.0055 25.9855 10.0007 26.9221 10.5199C26.6667 11.4161 26.4345 11.4559 27.4494 11.9553C27.2625 12.7384 26.9456 12.8084 27.9414 13.3381C27.8003 14.0236 27.4025 14.1214 28.1358 14.7078C27.9447 14.8184 27.7589 14.9276 27.5914 15.0704C26.6454 13.6956 26.7304 13.7066 26.2903 12.174C25.9116 10.8548 25.4278 9.54519 24.6779 8.35288Z" fill="#6ACFF6"/>
</g>
<defs>
<filter id="filter0_f_137_21159" x="5.68042" y="13.2554" width="7.93073" height="10.1641" filterUnits="userSpaceOnUse" color-interpolation-filters="sRGB">
<feFlood flood-opacity="0" result="BackgroundImageFix"/>
<feBlend mode="normal" in="SourceGraphic" in2="BackgroundImageFix" result="shape"/>
<feGaussianBlur stdDeviation="1" result="effect1_foregroundBlur_137_21159"/>
</filter>
<filter id="filter1_f_137_21159" x="7.65509" y="6.34619" width="20.8495" height="16.5571" filterUnits="userSpaceOnUse" color-interpolation-filters="sRGB">
<feFlood flood-opacity="0" result="BackgroundImageFix"/>
<feBlend mode="normal" in="SourceGraphic" in2="BackgroundImageFix" result="shape"/>
<feGaussianBlur stdDeviation="1" result="effect1_foregroundBlur_137_21159"/>
</filter>
<filter id="filter2_f_137_21159" x="22.6779" y="5.83594" width="7.45801" height="11.2344" filterUnits="userSpaceOnUse" color-interpolation-filters="sRGB">
<feFlood flood-opacity="0" result="BackgroundImageFix"/>
<feBlend mode="normal" in="SourceGraphic" in2="BackgroundImageFix" result="shape"/>
<feGaussianBlur stdDeviation="1" result="effect1_foregroundBlur_137_21159"/>
</filter>
</defs>
</svg>
