<svg width="30" height="32" viewBox="0 0 30 32" fill="none" xmlns="http://www.w3.org/2000/svg">
<path d="M4.42964 4.93689C4.48299 4.03846 4.41137 3.01005 5.0416 2.32422C5.82473 1.47216 7.64413 1.42458 8.66543 1.31746C10.4754 1.12762 12.2965 1.01401 14.115 1.01923C14.4818 0.974424 14.8979 1.02264 15.2726 1.01768C18.2047 0.978814 21.1288 1.2295 24.0417 1.57632C25.4466 1.74359 27.304 1.79949 27.6918 3.76722C27.8216 4.42632 27.7726 5.97942 27.8147 6.78039C28.0151 10.598 28.0452 14.4465 27.9423 18.2698L27.8577 21.2581C27.7777 23.5805 27.6868 25.9006 27.5423 28.2193C27.4944 28.9877 27.2249 29.4883 26.6964 29.9939C25.9612 30.6974 25.4581 30.6837 24.5541 30.7403C19.5971 31.0509 14.5891 31.1474 9.64031 30.6642C8.73698 30.5761 7.8348 30.4559 6.93023 30.3852C6.38951 30.3336 5.85095 30.2905 5.39173 29.9341C4.41183 29.1736 4.59533 28.3637 4.42964 27.3353C3.97705 27.2612 2.83428 27.1068 2.50834 26.8077C2.06777 26.4034 2.2276 25.3235 2.55696 24.9094C2.90856 24.4674 3.92855 24.7664 4.42964 24.7203C4.43388 23.8071 4.38692 22.8952 4.39124 21.9834C3.91799 22.0295 3.18451 22.0495 2.73095 21.9296C1.94832 21.7227 2.13658 20.155 2.56137 19.6711C2.87012 19.3194 3.87011 19.5906 4.39124 19.5812C4.44159 18.9454 4.4042 17.9958 4.39124 17.3307C3.60194 17.288 2.39689 17.639 2.15546 16.4886C1.7347 14.4837 3.36585 14.9152 4.39124 14.6716V12.5714C3.92138 12.5535 3.12036 12.6521 2.70104 12.5245C1.81032 12.2534 1.81911 10.1967 2.62737 9.90728C2.96716 9.78561 3.98838 9.79519 4.39124 9.7993C4.3449 9.35923 4.36117 8.03298 4.39124 7.5764C3.92824 7.56049 3.12121 7.63373 2.77171 7.51539C1.59322 7.11649 1.49148 3.84217 4.42964 4.93689ZM4.96049 4.93689C5.10668 4.93407 5.2524 4.93424 5.39859 4.93689C6.1747 5.03674 7.1472 4.60447 7.00387 5.92859C6.75868 7.6535 6.36199 7.35872 4.96049 7.4881C4.93936 7.76969 4.86473 9.64459 4.96049 9.76088C5.37754 9.76353 6.18203 9.74248 6.55906 9.8574C7.13186 10.0319 7.02229 10.5297 7.00387 11.0207C6.69754 12.7195 6.57841 12.2572 5.18162 12.5102H4.96049C4.95957 13.1951 4.92788 13.8984 4.96049 14.5814C6.14371 14.7342 7.09778 13.9668 7.07102 15.8041C6.83385 17.4251 6.76955 16.9447 5.71371 17.2758C5.46258 17.2708 5.21161 17.2736 4.96049 17.2758V19.5812C6.08033 19.613 7.07603 19.1004 7.07102 20.7337C6.96107 21.8384 6.78474 22.1836 5.71371 22.0632H5.00737V24.7899C5.79443 24.78 7.13517 24.6138 7.07102 25.8911C7.25761 27.9435 6.08881 27.4073 5.00737 27.4371C5.12534 28.3742 5.17653 29.2626 6.10909 29.6004C6.87356 29.8492 7.66024 29.6704 8.42086 29.8453C8.60012 29.8304 8.76766 29.8257 8.94708 29.8453C8.97492 29.0542 9.11547 28.2549 9.19127 27.4663C9.97733 19.287 10.5676 10.0531 9.7427 1.88058C8.69218 1.92628 6.19714 2.1468 5.52002 2.72811C4.92194 3.2415 5.04908 4.19564 4.96049 4.93689ZM26.788 19.2639C26.8437 18.7341 26.8472 18.2026 26.8597 17.6701C26.9497 13.8479 26.8842 10.0325 26.6882 6.21575C26.6337 5.15508 26.9884 3.54304 25.8221 3.06909C25.3106 2.86125 23.212 2.66614 22.6101 2.59471L19.0552 2.21121C16.4085 1.93407 12.9965 1.58391 10.331 1.88058C10.5733 3.92431 10.6284 5.97993 10.7161 8.03614C11.0895 8.02656 11.4652 7.95366 11.8355 7.90292L13.6143 7.65623C16.3078 7.25305 19.5723 6.68242 22.2558 7.00919C23.1434 7.11726 24.0782 7.25374 24.5075 8.24047C25.1965 9.82377 24.9988 15.1416 24.9366 17.4277L24.8474 20.7002C24.8244 21.4453 24.7899 25.0332 24.4826 25.5604C24.2845 25.0647 24.3525 24.4301 24.3511 23.8998C24.3432 20.8673 24.2699 17.8497 24.1399 14.8193C24.0816 13.4599 24.0092 10.2205 23.6032 8.96084C23.3765 8.25733 22.7681 8.25237 22.1902 8.17039C18.9053 7.70449 14.0388 8.2759 10.7161 8.63193C10.7316 10.9924 10.683 13.3336 10.5851 15.6914C10.3925 20.3292 10.1345 25.2479 9.53476 29.8453C11.2858 29.7982 13.0411 29.8769 14.7933 29.8439L18.2205 29.7692C18.6919 29.7605 19.161 29.6991 19.6342 29.707C20.4338 29.7129 23.6088 29.6825 24.3516 29.4596C24.6283 29.4749 24.907 29.4505 25.1848 29.4596C25.7101 29.4693 26.4108 28.8291 26.4323 28.2272C26.3841 27.8424 26.4597 27.3033 26.5168 26.9161C26.4924 26.352 26.6071 25.7873 26.5743 25.227C26.6596 24.6495 26.7341 23.2428 26.6543 22.6862C26.7263 22.4977 26.9017 19.5261 26.788 19.2639ZM3.12314 5.32056C2.45935 5.51822 2.31486 6.59694 2.93824 6.94296C3.2539 6.94527 3.56987 6.95084 3.88545 6.94296C4.0607 6.92191 4.21583 6.9131 4.39124 6.94296C4.41553 6.46175 4.43234 5.98044 4.42964 5.49837C4.00303 5.4294 3.5553 5.30328 3.12314 5.32056ZM4.96049 5.5646C4.96049 5.97257 5.00737 6.43779 4.96049 6.83789C5.18185 6.81753 6.13099 6.7768 6.25304 6.63784C6.36006 6.286 6.40555 5.93526 6.39028 5.5646C5.91456 5.5705 5.43506 5.5474 4.96049 5.5646ZM4.96049 10.4122V11.8223C5.20167 11.86 6.03684 11.8442 6.23238 11.7407L6.25304 11.6887C6.35528 11.2783 6.40162 10.8687 6.47216 10.4519C5.97524 10.4303 5.45603 10.3627 4.96049 10.4122ZM3.88545 10.4122C3.5068 10.4456 3.12568 10.4756 2.74599 10.4519C2.56123 10.9364 2.43308 11.567 2.81714 11.9723C2.89376 11.9744 2.98042 11.9862 3.05567 11.9723C3.50078 11.9896 3.94844 11.9354 4.39124 11.9723C4.37405 11.4537 4.39271 10.9314 4.39124 10.4122C4.22308 10.4107 4.05346 10.404 3.88545 10.4122ZM5.71371 15.2023C5.46289 15.2277 5.21192 15.2564 4.96049 15.2725V16.7103C5.21362 16.6521 5.45526 16.6221 5.71371 16.6438C5.91317 16.604 6.1168 16.5707 6.31349 16.5164C6.48712 16.1166 6.50177 15.6395 6.52668 15.2023C6.25736 15.1965 5.98264 15.1895 5.71371 15.2023ZM4.25122 15.3526C3.78252 15.3791 3.28328 15.4758 2.81714 15.4258C2.64797 15.786 2.51679 16.368 2.87264 16.6438C3.27318 16.8048 3.94305 16.6735 4.39124 16.7103C4.39317 16.3896 4.54707 15.3107 4.25122 15.3526ZM2.93824 20.1032C2.74737 20.5188 2.73611 20.9118 2.81714 21.3627C3.28251 21.3145 3.78159 21.3644 4.25122 21.3627C4.52424 21.3525 4.39371 20.5036 4.39124 20.2315C3.91012 20.1905 3.41512 20.1836 2.93824 20.1032ZM5.84062 20.2315C5.54747 20.2395 5.25333 20.2535 4.96049 20.2315C4.98092 20.6157 4.95849 21.0067 4.96049 21.3918C5.21161 21.3938 5.46258 21.3956 5.71371 21.3918C6.57263 21.5274 6.56769 21.059 6.47216 20.2315C6.25713 20.2068 6.0555 20.2065 5.84062 20.2315ZM2.98944 25.3398C2.82212 25.6527 2.76213 25.9808 2.87264 26.3247C3.08713 26.4438 4.01421 26.6729 4.25122 26.661C4.61746 26.7255 4.45639 25.7532 4.42964 25.3847C3.94983 25.3821 3.46948 25.2953 2.98944 25.3398ZM5.00737 25.4541V26.795L5.046 26.7939C5.38895 26.7858 6.15273 27.0492 6.39028 26.7424C6.55158 26.3726 6.55744 25.9561 6.47216 25.5604C6.13523 25.4325 5.36952 25.4246 5.00737 25.4541Z" fill="white"/>
<path d="M4.96045 6.83789C5.00733 6.43779 4.96045 5.97257 4.96045 5.5646C5.43502 5.5474 5.91452 5.5705 6.39024 5.5646C6.40551 5.93526 6.36002 6.28599 6.253 6.63784C6.13094 6.7768 5.18181 6.81752 4.96045 6.83789Z" fill="#00AEEF"/>
<path d="M4.96045 11.8223V10.4122C5.45599 10.3628 5.9752 10.4304 6.47212 10.4519C6.40157 10.8687 6.35524 11.2783 6.253 11.6888L6.23233 11.7407C6.0368 11.8443 5.20163 11.86 4.96045 11.8223Z" fill="#00AEEF"/>
<path d="M16.3412 11.8222C16.1189 11.9136 13.3891 12.1847 13.2031 12.0035C13.0375 11.8421 13.1082 11.476 13.3244 11.4148C14.0747 11.2025 16.1642 11.1561 16.9686 11.1193C17.7053 11.1076 19.4531 11.1402 20.1833 11.3242C20.4671 11.3957 20.3981 11.8042 20.133 11.8272C19.9324 11.8446 19.7217 11.8249 19.52 11.824L18.2279 11.8215C17.6013 11.8213 16.9645 11.8828 16.3412 11.8222Z" fill="white"/>
<path d="M13.3206 15.6307C13.0674 15.4583 13.0011 15.0531 13.3516 14.9581C14.1574 14.7394 15.9991 14.7162 16.8553 14.6716C17.3237 14.6534 19.9608 14.6915 20.2707 14.8653C20.4278 14.9535 20.4017 15.3071 20.2099 15.3367C19.0734 15.5118 17.6577 15.2908 16.4164 15.4258C16.1085 15.4102 15.7974 15.4431 15.49 15.4651L14.0506 15.5815C13.8082 15.6024 13.5638 15.6328 13.3206 15.6307Z" fill="white"/>
<path d="M4.96045 15.2722C5.21188 15.2561 5.46285 15.2275 5.71367 15.2021C5.9826 15.1892 6.25732 15.1962 6.52663 15.2021C6.50173 15.6392 6.48708 16.1163 6.31345 16.5162C6.11676 16.5705 5.91313 16.6038 5.71367 16.6436C5.45522 16.6218 5.21358 16.6519 4.96045 16.71V15.2722Z" fill="#00AEEF"/>
<path d="M16.749 18.8159C16.1423 18.9107 15.5136 18.9068 14.9016 18.9449C14.4994 18.97 13.2048 19.2959 13.1235 18.8C13.0353 18.2619 13.8326 18.349 14.1146 18.3259C14.9335 18.2589 15.7682 18.2513 16.583 18.1533C17.0771 18.1208 20.0891 18.1567 20.2991 18.3934C20.8907 19.0598 18.664 18.8119 18.5268 18.8126C17.9757 18.8155 17.2779 18.8886 16.749 18.8159Z" fill="white"/>
<g filter="url(#filter0_f_137_21165)">
<path d="M5.3986 4.93694L5.44671 4.9283C5.49382 4.81013 5.49567 4.64063 5.5121 4.5122C5.70971 2.96381 6.55877 3.04775 7.70598 2.9538C8.03628 2.92676 8.36829 2.85163 8.69998 2.8874C8.99883 7.89304 9.08896 13.1226 9.00785 18.149C8.96953 20.5243 8.90816 23.0344 8.74732 25.3879L8.49419 28.7964C8.46883 29.1454 8.45842 29.4977 8.42087 29.8454C7.66025 29.6705 6.87357 29.8492 6.1091 29.6005C5.86345 29.2781 5.59398 28.8474 5.87494 28.4138C6.17896 27.9447 6.95237 28.3537 7.36772 27.6384C7.6793 27.1019 7.58068 26.236 7.07103 25.8911C7.13518 24.6138 5.79445 24.7801 5.00738 24.7899V22.0633H5.71372L5.67255 22.0872C5.53029 22.6938 6.81513 22.9942 7.26271 22.3808C7.61199 21.9022 7.50767 21.1032 7.07103 20.7337C7.07605 19.1004 6.08034 19.6131 4.9605 19.5812V17.2759C5.21163 17.2736 5.4626 17.2709 5.71372 17.2759C6.07818 17.9102 6.9826 17.9359 7.36163 17.5171C7.72887 17.1115 7.38985 16.165 7.07103 15.8041C7.09779 13.9669 6.14372 14.7342 4.9605 14.5814C4.92789 13.8984 4.95958 13.1952 4.9605 12.5102H5.18163C5.21764 12.702 5.28048 12.941 5.4333 13.0583C5.6838 13.2506 7.03202 13.0959 7.29872 12.6205C7.53982 12.1909 7.42039 11.2919 7.00388 11.0207C7.02231 10.5297 7.13187 10.0319 6.55907 9.85744C6.18204 9.74253 5.37755 9.76358 4.9605 9.76093C5.10538 9.75211 5.25334 9.7599 5.3986 9.76093C5.46961 9.18371 5.47887 8.61384 5.53029 8.03619C5.88473 8.16266 6.54535 8.03919 6.88499 7.93916C7.62879 7.7202 7.65 6.28964 7.00388 5.92864C7.14721 4.60452 6.17472 5.0368 5.3986 4.93694Z" fill="#00AEEF"/>
<path d="M19.6342 29.7068C19.9334 29.6346 20.2386 29.6002 20.5372 29.5285C24.358 28.6117 25.7203 25.1659 26.4775 21.1995C26.6 20.5574 26.6584 19.9051 26.788 19.2637C26.9018 19.5258 26.7263 22.4974 26.6543 22.6859C26.5895 22.9623 26.5741 23.2614 26.4932 23.5918C26.0632 25.3468 25.4053 27.0817 24.1673 28.3147C23.8512 28.6296 23.5006 28.8667 23.1674 29.1532C24.6445 28.6399 25.2238 28.1351 25.9862 26.5206C26.1865 26.0966 26.3469 25.6324 26.5743 25.2268C26.6071 25.7871 26.4924 26.3518 26.5168 26.9158C26.3467 27.1081 26.2552 27.3697 26.13 27.5973C25.6719 28.4301 25.1591 29.0488 24.3517 29.4593C23.6088 29.6822 20.4338 29.7127 19.6342 29.7068Z" fill="#00AEEF"/>
</g>
<path d="M4.96052 20.2315C5.25335 20.2535 5.5475 20.2395 5.84064 20.2315C6.05553 20.2065 6.25715 20.2069 6.47219 20.2315C6.56772 21.059 6.57266 21.5275 5.71373 21.3918C5.46261 21.3956 5.21164 21.3938 4.96052 21.3918C4.95851 21.0067 4.98095 20.6157 4.96052 20.2315Z" fill="#00AEEF"/>
<path d="M16.6851 22.2583C15.5664 22.2401 14.4653 22.4572 13.3921 22.4572C13.0486 22.4572 13.0089 21.8967 13.3448 21.8078C13.6226 21.7342 13.9445 21.7353 14.2302 21.7112L15.7345 21.5928C16.0173 21.5732 16.3013 21.5677 16.583 21.534C17.0358 21.5249 19.9914 21.5446 20.2884 21.764C20.4034 21.849 20.4062 22.076 20.3123 22.179C20.1423 22.3654 19.3267 22.2577 19.0878 22.2577L16.6851 22.2583Z" fill="white"/>
<path d="M16.583 25.7442C15.4796 25.6322 14.4421 25.8721 13.3901 25.8549C13.1664 25.8513 13.0195 25.5187 13.1704 25.327C13.3776 25.0637 16.3173 24.997 16.749 24.962C17.213 24.938 20.0105 24.9984 20.2814 25.1964C20.4564 25.3243 20.3735 25.6779 20.1636 25.7002C19.0512 25.8184 17.7855 25.618 16.583 25.7442Z" fill="white"/>
<path d="M5.00739 26.7951V25.4542C5.36954 25.4246 6.13524 25.4326 6.47218 25.5604C6.55746 25.9562 6.5516 26.3727 6.3903 26.7424C6.15274 27.0493 5.38897 26.7859 5.04601 26.7939L5.00739 26.7951Z" fill="#00AEEF"/>
<path d="M25.1848 29.4594C25.6837 29.1647 26.0189 28.6348 26.4323 28.2271C26.4108 28.8289 25.7101 29.4692 25.1848 29.4594Z" fill="#00AEEF"/>
<defs>
<filter id="filter0_f_137_21165" x="2.9458" y="0.87793" width="25.8796" height="30.9673" filterUnits="userSpaceOnUse" color-interpolation-filters="sRGB">
<feFlood flood-opacity="0" result="BackgroundImageFix"/>
<feBlend mode="normal" in="SourceGraphic" in2="BackgroundImageFix" result="shape"/>
<feGaussianBlur stdDeviation="1" result="effect1_foregroundBlur_137_21165"/>
</filter>
</defs>
</svg>
