<svg width="22" height="20" viewBox="0 0 22 20" fill="none" xmlns="http://www.w3.org/2000/svg">
<path d="M13.17 18.8899C17.354 18.6129 20.686 15.2329 20.96 10.9899C21.013 10.1599 21.013 9.29994 20.96 8.46994C20.686 4.22794 17.354 0.849936 13.17 0.570936C11.7249 0.475704 10.2751 0.475704 8.82997 0.570936C4.64597 0.848936 1.31397 4.22794 1.03997 8.47094C0.987001 9.3101 0.987001 10.1518 1.03997 10.9909C1.13997 12.5359 1.82297 13.9669 2.62797 15.1749C3.09497 16.0199 2.78697 17.0749 2.29997 17.9979C1.94997 18.6629 1.77397 18.9949 1.91497 19.2349C2.05497 19.4749 2.36997 19.4829 2.99897 19.4979C4.24397 19.5279 5.08297 19.1759 5.74897 18.6849C6.12597 18.4059 6.31497 18.2669 6.44497 18.2509C6.57497 18.2349 6.83197 18.3409 7.34397 18.5509C7.80397 18.7409 8.33897 18.8579 8.82897 18.8909C10.254 18.9849 11.743 18.9849 13.171 18.8909L13.17 18.8899Z" stroke="#6ACFF6" stroke-linejoin="round"/>
</svg>
