<svg width="20" height="22" viewBox="0 0 20 22" fill="none" xmlns="http://www.w3.org/2000/svg">
<path fill-rule="evenodd" clip-rule="evenodd" d="M16.5 1.75C16.2702 1.75 16.0426 1.79527 15.8303 1.88321C15.618 1.97116 15.4251 2.10006 15.2626 2.26256C15.1001 2.42507 14.9712 2.61798 14.8832 2.8303C14.7953 3.04262 14.75 3.27019 14.75 3.5C14.75 3.72981 14.7953 3.95738 14.8832 4.1697C14.9712 4.38202 15.1001 4.57493 15.2626 4.73744C15.4251 4.89994 15.618 5.02884 15.8303 5.11679C16.0426 5.20474 16.2702 5.25 16.5 5.25C16.9641 5.25 17.4092 5.06563 17.7374 4.73744C18.0656 4.40925 18.25 3.96413 18.25 3.5C18.25 3.03587 18.0656 2.59075 17.7374 2.26256C17.4092 1.93437 16.9641 1.75 16.5 1.75ZM13.25 3.5C13.25 2.63805 13.5924 1.8114 14.2019 1.2019C14.8114 0.59241 15.638 0.25 16.5 0.25C17.362 0.25 18.1886 0.59241 18.7981 1.2019C19.4076 1.8114 19.75 2.63805 19.75 3.5C19.75 4.36195 19.4076 5.1886 18.7981 5.7981C18.1886 6.40759 17.362 6.75 16.5 6.75C15.638 6.75 14.8114 6.40759 14.2019 5.7981C13.5924 5.1886 13.25 4.36195 13.25 3.5ZM6.972 4.81C7.41879 4.61227 7.90032 4.50498 8.3888 4.49434C8.87727 4.4837 9.36302 4.56991 9.818 4.748C12.386 5.748 13.006 9.098 10.968 10.952L9.928 11.898L9.868 11.952C9.73249 12.0799 9.62728 12.2364 9.56007 12.4102C9.49285 12.5839 9.46533 12.7705 9.47952 12.9563C9.4937 13.1421 9.54924 13.3223 9.64206 13.4839C9.73488 13.6454 9.86265 13.7842 10.016 13.89L10.02 13.892L10.145 13.988C11.0694 14.7037 11.8199 15.6193 12.3403 16.6661C12.8607 17.713 13.1375 18.864 13.15 20.033V21C13.15 21.1989 13.071 21.3897 12.9303 21.5303C12.7897 21.671 12.5989 21.75 12.4 21.75C12.2011 21.75 12.0103 21.671 11.8697 21.5303C11.729 21.3897 11.65 21.1989 11.65 21V20.049C11.6398 19.0814 11.405 18.1294 10.9643 17.268C10.5235 16.4066 9.88875 15.6593 9.11 15.085L9.104 15.08L9.023 15.018C8.70648 14.7681 8.4488 14.4516 8.26823 14.091C8.08765 13.7304 7.98861 13.3344 7.97811 12.9313C7.96762 12.5281 8.04592 12.1276 8.20749 11.758C8.36905 11.3885 8.60991 11.0591 8.913 10.793L8.918 10.788L9.958 9.842C11.173 8.738 10.803 6.742 9.273 6.145C9.00207 6.03875 8.71275 5.98731 8.42179 5.99366C8.13084 6.00001 7.84404 6.06403 7.578 6.182L7.056 6.412C6.511 6.653 6.259 6.764 6.014 6.886C5.60122 7.09045 5.20056 7.31849 4.814 7.569C4.584 7.717 4.359 7.877 3.874 8.223L2.435 9.247C2.35476 9.30412 2.26406 9.34489 2.16807 9.36696C2.07208 9.38903 1.97268 9.39198 1.87555 9.37563C1.77842 9.35929 1.68546 9.32398 1.60198 9.27171C1.51849 9.21944 1.44612 9.15124 1.389 9.071C1.33187 8.99076 1.29111 8.90006 1.26904 8.80407C1.24697 8.70808 1.24402 8.60868 1.26037 8.51155C1.27671 8.41442 1.31202 8.32146 1.36429 8.23798C1.41656 8.15449 1.48476 8.08212 1.565 8.025L3.021 6.99C3.485 6.659 3.738 6.479 3.999 6.31C4.43433 6.02933 4.88367 5.77367 5.347 5.543C5.626 5.405 5.91 5.28 6.432 5.05L6.972 4.81ZM13.272 10.818C13.2959 10.7224 13.3383 10.6324 13.397 10.5532C13.4556 10.474 13.5293 10.4071 13.6138 10.3564C13.6983 10.3057 13.792 10.2721 13.8895 10.2576C13.987 10.2432 14.0864 10.248 14.182 10.272C15.3757 10.5702 16.6243 10.5702 17.818 10.272C18.0111 10.2237 18.2154 10.2541 18.3861 10.3565C18.5567 10.4589 18.6797 10.6249 18.728 10.818C18.7763 11.0111 18.7459 11.2154 18.6435 11.3861C18.5411 11.5567 18.3751 11.6797 18.182 11.728C16.7494 12.086 15.2506 12.086 13.818 11.728C13.7224 11.7041 13.6324 11.6617 13.5532 11.603C13.474 11.5444 13.4071 11.4707 13.3564 11.3862C13.3057 11.3017 13.2721 11.208 13.2576 11.1105C13.2432 11.013 13.248 10.9136 13.272 10.818ZM7.48 15.424C7.63271 15.5513 7.72861 15.7341 7.74662 15.9321C7.76462 16.1301 7.70325 16.3272 7.576 16.48L7.316 16.791C6.54456 17.7171 5.57889 18.4623 4.4874 18.9736C3.39592 19.485 2.20533 19.75 1 19.75C0.801088 19.75 0.610322 19.671 0.46967 19.5303C0.329018 19.3897 0.25 19.1989 0.25 19C0.25 18.8011 0.329018 18.6103 0.46967 18.4697C0.610322 18.329 0.801088 18.25 1 18.25C1.98547 18.2501 2.9589 18.0335 3.85131 17.6154C4.74372 17.1974 5.53327 16.5882 6.164 15.831L6.424 15.52C6.55134 15.3673 6.73411 15.2714 6.93213 15.2534C7.13015 15.2354 7.32721 15.2968 7.48 15.424Z" fill="#6ACFF6"/>
</svg>
