<svg width="20" height="20" viewBox="0 0 20 20" fill="none" xmlns="http://www.w3.org/2000/svg">
<path d="M17.298 7.566H2.70203C2.40664 7.56633 2.11515 7.63342 1.84934 7.76226C1.58354 7.89109 1.35029 8.07834 1.16703 8.31C0.98453 8.54102 0.857005 8.81054 0.794113 9.09814C0.731221 9.38575 0.734611 9.6839 0.804026 9.97L2.36903 16.378C2.59562 17.2036 3.08758 17.9317 3.76903 18.45C4.45103 18.969 5.28603 19.25 6.14503 19.25H13.853C14.712 19.25 15.547 18.969 16.229 18.45C16.9105 17.9317 17.4024 17.2036 17.629 16.378L19.194 9.971C19.2994 9.53906 19.2531 9.08403 19.0631 8.68209C18.8731 8.28015 18.5507 7.95568 18.15 7.763C17.8834 7.635 17.5918 7.56772 17.296 7.566M6.08703 11.46V15.355M10 11.46V15.355M13.913 11.46V15.355M16.848 7.566C16.8477 6.67005 16.6703 5.78299 16.326 4.95582C15.9818 4.12864 15.4774 3.37765 14.842 2.746C13.5555 1.4665 11.8145 0.748803 10 0.750001C8.18557 0.748803 6.44454 1.4665 5.15803 2.746C4.52279 3.37773 4.01865 4.12876 3.67456 4.95593C3.33048 5.78311 3.15324 6.67012 3.15303 7.566" stroke="#6ACFF6" stroke-linecap="round" stroke-linejoin="round"/>
</svg>
