<svg width="22" height="20" viewBox="0 0 22 20" fill="none" xmlns="http://www.w3.org/2000/svg">
<path d="M11 3.49996C9.169 1.88696 6.793 0.996957 4.333 0.999957C4.14833 0.999957 3.965 1.00496 3.783 1.01496C2.659 1.07396 2.097 1.10396 1.549 1.68296C1 2.26196 1 2.97496 1 4.40296V13.663C1 14.895 1 15.51 1.221 15.855C1.32259 16.0314 1.46882 16.178 1.645 16.28C1.99 16.5 2.771 16.5 4.333 16.5C6.78563 16.4936 9.15627 17.3825 11 19V3.49996ZM11 3.49996C12.9864 1.75667 15.5784 0.864151 18.217 1.01496C19.341 1.07496 19.903 1.10496 20.451 1.68296C21 2.26196 21 2.97496 21 4.40296V9.49996M20.689 12.934L20.066 12.311C19.8667 12.1117 19.5964 11.9998 19.3145 11.9998C19.0327 11.9998 18.7623 12.1117 18.563 12.311L15.214 15.661C14.7697 16.1061 14.4664 16.6724 14.342 17.289L14 19L15.71 18.658C16.3273 18.534 16.8943 18.2306 17.34 17.786L20.689 14.437C20.8883 14.2376 21.0002 13.9673 21.0002 13.6855C21.0002 13.4036 20.8883 13.1333 20.689 12.934Z" stroke="#6ACFF6" stroke-linecap="round" stroke-linejoin="round"/>
</svg>
